<?xml version="1.0" encoding="UTF-8"?>
<!DOCTYPE svg PUBLIC "-//W3C//DTD SVG 1.1//EN" "http://www.w3.org/Graphics/SVG/1.1/DTD/svg11.dtd">
<!-- Creator: CorelDRAW 2020 (64-Bit) -->
<svg xmlns="http://www.w3.org/2000/svg" xml:space="preserve" width="22.846mm" height="31.926mm" version="1.1" style="shape-rendering:geometricPrecision; text-rendering:geometricPrecision; image-rendering:optimizeQuality; fill-rule:evenodd; clip-rule:evenodd"
viewBox="0 0 2284.6 3192.6"
 xmlnsXlink="http://www.w3.org/1999/xlink"
 xmlnsXodm="http://www.corel.com/coreldraw/odm/2003">
 <!-- <defs>
  <style type="text/css">
   <![CDATA[
    .fil0 {fill:white}
   ]]>
  </style>
 </defs> -->
 <g id="Layer_x0020_1">
  <metadata id="CorelCorpID_0Corel-Layer"/>
  <g id="_1604977145264">
   <path class="fil0" d="M152.26 2004.62c0,54.67 2.41,107.03 12.74,158.12 3.66,18.09 7.54,36.84 12.65,54.87 13.56,47.91 33.03,102.86 56.36,146.19l24.08 43.44c27.01,45.11 57.93,88.28 92.91,127.55l84.14 85.34c4.17,3.5 5.62,4.64 9.57,8.34 17.08,15.98 36.55,31.55 55.89,44.7l50.69 34.74c3.42,2.25 7.84,5.33 11.59,6.33 1.66,-7.14 4.8,-13.33 7.8,-19.76 3.48,-7.44 5.59,-12.55 9.19,-19.74 20.09,-40.17 44.78,-75.73 73.54,-109.73l13.18 -14.38c3.51,-3.5 3.91,-4.61 6.93,-8.22 6.14,-7.38 36.05,-33.29 44.27,-39.79 5.93,-4.69 10.33,-8.08 16.34,-12.59 31.18,-23.4 70.42,-48.38 106.29,-63.19 26.72,-11.04 53.85,-23.16 82.09,-30.9 94.39,-25.86 140.56,-30.31 242.51,-30.31 53.67,0 101.42,7.14 151.03,18.45 30.85,7.03 57.62,15.75 86.83,26.16 32.9,11.71 65.25,27.64 95,45.55 23.28,14.01 45.38,29.59 66.75,46.24 8.29,6.46 38.82,32.9 45.05,40.38 18.84,22.61 32.84,35.37 51.38,61.6 19.76,27.95 36.89,58.1 51.02,89.54 2.91,6.48 6.44,12.98 8.24,20.69 18.58,-4.96 94.54,-66.1 112.02,-80.89l22.68 -20.03c17.72,-15.66 45.47,-42.18 59.92,-58.59l23.67 -27.3c28.47,-36.59 44.25,-52.92 72.18,-97.31 4.66,-7.4 8.63,-13.47 13.27,-21.17 4.45,-7.39 7.7,-13.81 12.07,-21.01l22.76 -44.76c11.78,-27.6 19.8,-43.48 30.18,-73.16 25.24,-72.26 41.86,-148.75 41.86,-229.58 0,-109.23 -10.01,-176.7 -40.45,-279.22 -10.8,-36.37 -23.16,-72.62 -31.08,-110.84 -6.9,-33.24 -19.41,-87.71 -19.41,-122.52 -3.43,3.96 -4.78,13.62 -6.05,18.75 -8.35,33.62 -19.95,66.78 -32.51,98.39 -16.81,42.27 -35.33,85.46 -58.69,124.58l-83.24 126.2c-3.8,4.98 -7.76,9.18 -11.83,14.35l-24.34 28.01c-35.57,35.17 -71.29,69.4 -117.25,92.2 -12.7,6.3 -22.01,11.09 -35.76,16.6 -6.63,2.65 -12.57,4.77 -18.89,7.28 -6.49,2.58 -12.52,4 -19.81,6.37 -26.53,8.64 -55.94,14.15 -84.8,19.93 -87.02,17.4 -159.05,33.37 -235.3,78.86 -11.62,6.93 -20.87,13.21 -31.86,20.5l-30.16 22.2c-34.45,28.07 -64.16,56.07 -94.45,88.81 -4.2,4.55 -10.37,7.75 -12.07,14.11l-2.76 0c-1.17,-4.37 -18.85,-22.31 -23.77,-27.21l-59.95 -57.17c-44.43,-39.51 -98.65,-73.71 -153.68,-95.73 -141.6,-56.67 -261.35,-35.16 -387.99,-135.61 -4.67,-3.7 -9.98,-7.76 -14.3,-11.88l-39.97 -38.57c-17.43,-17.23 -33.01,-37.43 -47.68,-57.04 -22.65,-30.26 -44.28,-61.48 -62.63,-94.46l-44.6 -86.3c-21.63,-43.01 -46.88,-113.98 -58.57,-163.27l-3.88 -9.9c0,35.32 -12.36,88.6 -19.4,122.52 -7.92,38.22 -20.28,74.47 -31.08,110.84 -23.46,78.99 -40.46,157.44 -40.46,243.4z"/>
   <path class="fil0" d="M415.44 2853.41c6.33,-1.69 52.55,-45.58 114.86,-15.65 58.37,28.04 76.38,101.94 38.1,154.83 -2.12,2.92 -3.56,3.94 -5.52,6.87 6.14,9.18 50.74,38.89 62.28,46.58 22.11,14.74 44.84,29.03 68.62,41.61 4.51,-8.52 6.94,-13.81 13.42,-21.03 17.61,-19.61 40.64,-36.84 70.63,-36.84 36.09,0 57.02,5.55 82.33,30.65 17.84,17.69 29.28,43.76 29.28,75.45 0,13.36 -3.12,20.06 -5.51,30.31 22.53,10.81 130.72,30.31 154.33,30.31 1.47,-6.33 1.98,-12.96 3.56,-19.85 9.06,-39.6 48.7,-76.6 91.51,-76.6 35.43,0 57.52,5.64 81.67,29.94 24.11,24.27 23.39,38.38 29.94,66.51 14.26,0 27.64,-2.51 40.75,-4.72 14.22,-2.39 26.03,-4.36 39.74,-7.1 13.42,-2.69 24.36,-5.08 37.19,-8.29 6.9,-1.73 12.4,-3 18.74,-4.68 5.14,-1.36 13.63,-3.46 17.91,-5.52 -2.65,-11.36 -5.52,-23.26 -5.52,-37.2 0,-28.26 14.11,-53.56 28.59,-67.87 9.54,-9.44 14.65,-14.26 27.42,-20.81 34.11,-17.49 76.57,-13.08 107.17,8.18 14.56,10.11 24.35,23.77 32.49,39.16 35.13,-18.59 68.52,-40.12 100.21,-63.76 6.28,-4.69 27.54,-19.73 30.69,-24.43 -13.12,-19.59 -26.18,-33.27 -26.18,-68.89 0,-66.65 61.41,-112.68 121.65,-100.99 33.3,6.46 40.98,20.89 51.97,23.83 21.4,-31.97 40.93,-58.57 56.09,-94.1 8.96,-20.99 18.91,-42.48 26.75,-64.19 10.63,-29.41 48.06,-155.49 48.06,-193.08 -4.27,2.86 -6.48,6.73 -9.39,11.29l-24.23 37.77c-9.55,14.39 -20.08,27.4 -31.47,40.18 -16.22,18.21 -32.93,35.99 -51.63,51.71l-17.12 14.57c-8.26,6.58 -15.32,12.12 -24.03,18.69 -27.44,20.68 -58.15,39.99 -88.76,55.92l-27.11 14.23c-5.12,2.57 -9.55,4.08 -14.27,6.4 -28.23,13.91 -58.1,26.7 -88.01,37.38 -6.08,2.17 -8.9,2.53 -13.62,7.04l-33.57 28.44c-4.35,3.22 -7.16,5.69 -11.61,9.06 -61.11,46.36 -130.91,82.06 -204.71,106.7 -161.44,53.89 -342.08,42.75 -494.11,-22.25 -57.72,-24.69 -106.03,-55.6 -155.69,-92.34l-22.79 -18.55c-7.94,-7.57 -14.26,-14.01 -24.96,-17.75 -24.75,-8.64 -91.55,-36.12 -114.97,-50.38l-53.07 -29.6c-17.22,-10.24 -34.79,-21.97 -50.35,-33.71 -19.78,-14.93 -38.42,-29.81 -56.31,-47.03 -7.04,-6.77 -14.62,-12.71 -20.84,-20.5 -7.64,-9.58 -19.79,-20.35 -29.75,-33.63 -12.01,-16.02 -23.68,-31.7 -33.9,-48.77 -4.61,-7.71 -10.22,-19.76 -17.85,-24.87 0,22.77 14.41,78.3 19.84,100.04 16.66,66.65 38.72,126.63 69.74,186.55l16.58 28.89c7.5,12.48 16.7,23.87 24.74,35.89z"/>
   <path class="fil0" d="M1539.81 1992.22l2.34 43.13c1.38,12 -2.94,11.98 11.44,11.98 59.07,0 111.82,-25.03 158.74,-56.22 40.17,-26.7 81.23,-66.77 111.14,-103.81 54.41,-67.38 98.53,-138.56 127.82,-220.79l20.68 -60.61c16.48,-50.13 30.4,-119.55 43.5,-171.46 3.51,-13.89 6.93,-29.59 10.45,-43.29 8.57,-33.33 14.38,-50.57 24.91,-82.56 12.4,-37.67 31.65,-75.06 53.37,-107.85 14.87,-22.44 30.66,-39.72 49.12,-58.35 13.68,-13.8 45.19,-38.31 60.22,-47.26 27.86,-16.58 30.87,-19 61.15,-33.93 2.3,-1.13 2.36,-1.11 4.67,-2.22l4.52 -2.36c-20.29,0.45 -96.5,25.59 -121.66,35.41l-54.71 23.84c-5.9,2.96 -11.16,5.57 -17.45,8.72 -31.48,15.74 -53.82,29.49 -82.87,48.03 -23.09,14.74 -53.48,38.72 -74.87,56.04l-86.98 82.5c-3.11,3.22 -3.4,4.44 -6.19,7.59 -2.19,2.49 -3.98,3.74 -6.18,6.23l-30.28 35.85c-4.21,4.81 -7.52,9.4 -11.49,14.69 -38.71,51.45 -61.59,84.55 -95.61,141.39 -6.55,10.96 -12.98,22.11 -19.29,33.07 -18.47,32.07 -28.73,54.65 -44.63,86.27 -3.35,6.67 -5.39,12.2 -8.73,18.83 -20.26,40.17 -44.11,112.26 -56.06,153.38 -15.28,52.6 -27.07,126.82 -27.07,183.76z"/>
   <path class="fil0" d="M729.6 2047.33c13.96,0 10.31,0.09 11.31,-10.74 7.34,-79.24 -4.94,-156.39 -23.99,-225.98 -13.26,-48.46 -31.45,-99.12 -52.05,-144.98 -1.51,-3.36 -2.53,-6.39 -4.15,-9.64l-16.74 -35.62c-4.83,-11.93 -11.94,-23.06 -17.72,-34.64 -32.45,-65 -99.25,-167.88 -144.48,-223.41 -4.13,-5.07 -7.53,-8.96 -11.8,-14.39l-63.11 -67.79c-10.75,-9.83 -28.12,-28.51 -40.45,-38.09l-89.58 -68.88c-5.85,-3.81 -10.35,-6.4 -16,-10.18 -55.78,-37.44 -151.66,-80.11 -217.71,-96.45 -11.05,-2.74 -34.46,-9.72 -43.82,-9.92 2.81,1.94 45.45,22.1 61.21,32.49 41.51,27.4 61.42,42.69 94.83,80.16l33.53 46.39c69.41,113.26 82.16,264.21 122,389.2 19.6,61.48 40.07,114.26 71.05,170.08l31.03 50.28c7.19,10.83 14.48,20.86 22.36,31.37 17.2,22.94 28.48,34.06 42.33,51.37 8.8,10.99 22.76,23.85 33.21,34.31 25.47,25.48 78.74,65.2 109.7,77.7 33.55,13.54 62.4,27.36 109.04,27.36z"/>
   <path class="fil0" d="M951.45 1357l41.5 -12.24c28.45,-8.43 59.72,-13.45 90.53,-16.94 14.47,-1.65 60.33,-5.35 75.23,-3.09 8.72,1.31 17.96,-0.22 26.6,0.95 45.56,6.18 44.11,4.19 93.04,14.44l43.75 11.37c-2.2,-1.92 -1.54,-1.34 -4.28,-2.6 -20.09,-9.23 -51.17,-20.48 -71.77,-32.96 -56.79,-34.4 -92.24,-64.92 -30.36,-127.35 3.21,-3.24 3.47,-4.24 6.23,-7.55 2.24,-2.67 4.34,-4.47 6.83,-6.95 24.56,-24.48 32.51,-31.7 54.36,-58.63 3.95,-4.86 7.74,-11.05 11.18,-16.37 32.66,-50.48 20.51,-88.65 7.73,-133.99l-55.97 -223.74c-26.58,-113.51 -63,-319.72 -75.4,-428.92l-19.38 -174.9c-0.85,-17.19 -4.07,-38.09 -4.18,-52.32 -0.22,-26.61 -4.11,-50.07 -4.11,-81.31l-5.72 67.31c-0.5,4.58 -1.15,6.05 -1.17,12.6 -0.09,30.39 -19.67,199.42 -23.84,231.08 -15.34,116.34 -39.81,270.9 -66.27,385.69 -7.39,32.06 -12.98,61.94 -20.95,93.41 -16.14,63.82 -28.44,116.01 -46.32,179.65 -9.79,34.83 -17.4,58.48 -4.01,95.55 14.54,40.31 45.14,67.21 74.23,96.63 6.03,6.1 14.74,12.48 21.35,19.99 11.2,12.71 24.17,26.13 29.5,42.15 10.59,31.79 -12.5,53.53 -35.72,70.79 -24.7,18.37 -73.28,41.94 -102.37,53.33l-7.8 3.23c-1.78,1 -1.38,0.77 -2.44,1.69z"/>
   <path class="fil0" d="M1290.41 571.59c0,91.77 9.73,170.59 26.3,253.42 3.09,15.45 6.59,29.68 9.87,45.25 16.48,78.34 51.92,170.02 81.36,245.2 10.07,25.73 18.96,54.5 26.06,82.8 6.73,26.85 13.49,61.68 13.49,95.36 0,14.46 -2.47,40.39 -6.89,49.6 10.39,-0.86 37.69,-15.99 46.27,-21.25 17.03,-10.43 24.6,-17.31 38.13,-30.76 23.14,-23.01 40.99,-60.38 40.99,-95.42 0,-58.43 -9.37,-83.59 -31.71,-133.64 -1.44,-3.24 -2.93,-5.57 -4.51,-9.27 -11.36,-26.57 -41.88,-84.5 -57.93,-114.31 -2.21,-4.11 -3.33,-5.24 -5.53,-9.62l-30.77 -56.05c-1.87,-3.48 -2.94,-6.09 -4.56,-9.21l-45.03 -84.49c-29.59,-59.17 -48.01,-97.37 -69.53,-161.96 -4.76,-14.28 -9.05,-28.78 -13.06,-44.82l-7.78 -34.93c-1,-5.52 0.2,-8.44 -3.79,-11.37 0,16.81 -1.38,28.52 -1.38,45.47z"/>
   <path class="fil0" d="M717.2 1173.74c0,29.83 -0.25,48.58 12.86,76.71 14.28,30.64 37.4,53.43 65.41,70.99 8.38,5.26 36.64,20.91 47.12,21.78 -4.21,-8.77 -6.89,-34.46 -6.89,-48.23 0,-89.77 38.71,-176.01 69.69,-256.87 54.83,-143.09 87.39,-313.64 87.39,-466.53 0,-16.95 -1.37,-28.66 -1.37,-45.47 -3.98,2.92 -3.64,10.54 -5.86,21.71 -1.54,7.75 -3.41,15.33 -5.44,23.48 -24.84,99.44 -58.92,157.69 -101.69,244.17l-29.84 55.6c-14.13,27.89 -36.36,64.08 -50.99,93.68 -29.24,59.14 -80.39,143.39 -80.39,208.98z"/>
   <path class="fil0" d="M1013.45 1445.19c1.23,14.73 9.38,27.91 -10.19,53.19 -16.25,20.99 -64.32,29.61 -86.26,-11.86 -15.01,4.01 -53.72,34.86 -67.52,44.1 6.01,8.97 13.78,20.95 13.78,35.82 0,36.76 -39.6,63.3 -73.05,48.25 -6.82,-3.06 -9.62,-5.97 -15.14,-9.67 -9.03,13.5 -40.76,53.24 -44.09,67.52 10.33,5.47 15.74,11.24 22.05,20.67 27.02,-14.3 59.43,-35.04 89.08,-50.08l30.8 -16.06c92.35,-46.17 168.71,-56.49 283.84,-56.49 78.69,0 157.59,15.21 214.18,37.97 15.48,6.23 28.12,12.91 42.12,19.9l61.94 33.13c6.78,3.93 12.76,7.41 20.27,11.42l40.42 22.97c1.08,-4.65 6.04,-11.16 9.28,-14.15 4.46,-4.11 8.83,-6.47 14.14,-9.28l-32.07 -50.6c-2.98,-3.99 -11.03,-13.21 -12.02,-16.92 -9.91,6.64 -19.14,13.78 -35.82,13.78 -41.96,0 -66.39,-46.27 -44.01,-81.21 2.91,-4.53 3.53,-2.14 4.05,-8.35 -3.57,-0.95 -26.36,-18.51 -31.69,-22.05 -11.31,-7.51 -22.09,-14.13 -34.45,-20.67 -14.26,21.3 -22.61,28.94 -52.36,28.94 -12.68,0 -24.75,-7.56 -31.39,-14.08 -14.56,-14.32 -20.01,-39.59 -12.71,-54.82 -18.82,-9.03 -63.39,-12.68 -79.91,-16.53 0,27.34 -25.26,49.6 -45.48,49.6 -20.14,0 -28.57,-0.35 -43.76,-15.48 -4.48,-4.46 -7.69,-8.07 -10.42,-14.39 -3.06,-7.08 -3.3,-12.14 -5.07,-19.73l-78.54 15.16z"/>
   <path class="fil0" d="M1662.45 1512.7c4.93,-3.3 34.25,-41.08 39.76,-48.42 23.63,-31.52 40.66,-55.92 60.75,-89.44 38.76,-64.69 101.32,-196.56 50.51,-272.21 -8.1,-12.07 -16.28,-22.82 -27.59,-31.66 -64.9,-50.75 -152.63,-63.96 -236.42,-63.96 5.49,8.2 13.08,16.54 19.61,24.48l19.18 24.91c17.28,23.63 46.47,66.93 59.96,94.38 2.88,5.86 5.15,8.66 7.85,14.19 2.71,5.58 4.02,9.63 6.85,15.2 2.85,5.63 4.26,9.23 6.9,15.14 4.59,10.32 8.8,20.57 12.45,31.64 29.16,88.31 36.47,171.1 -3.28,256.82l-7.82 14.23c-2.88,5.23 -7.23,9.17 -8.71,14.7z"/>
   <path class="fil0" d="M620.75 1512.7l-22.85 -43.28c-36.38,-86.58 -21.83,-190.63 15.05,-273.17 16.08,-35.98 24.8,-52.18 45.8,-86.48 11.47,-18.73 22.98,-34.96 35.61,-52.57l39.38 -50.19c-34.07,0 -51.9,1.16 -82.76,5.43 -9.35,1.3 -16.76,2.8 -25.93,4.39 -58.2,10.04 -121.57,35.48 -154.77,84.98 -51.25,76.39 10.33,206.75 49.45,272.16l60.08 88.74c4.64,6.19 8.73,11.12 13.19,17.11 4.56,6.14 8.65,10.71 13.54,16.78 3.07,3.82 11.08,14.01 14.21,16.1z"/>
   <path class="fil0" d="M879.8 2449.68c39.69,9.25 60.26,10.74 101.97,31.69 42.51,21.34 81.05,53.21 107.2,92.6 27.06,40.77 51.25,98.33 51.25,149.91l2.76 0c0,-45.8 18.92,-93.48 38.11,-128.61 13.67,-25.05 19.62,-29.4 34.33,-48.34 18.66,-24.03 57.6,-51.3 86.01,-65.56 14.13,-7.1 30.94,-13.43 47.36,-18.79 8.74,-2.85 17.57,-5.04 25.94,-7.12 9.59,-2.39 19.24,-3.58 28.67,-5.78 -6.17,-5.37 -49.65,-17.99 -57.08,-20.09 -19.8,-5.6 -42.02,-10.94 -62.79,-14.37 -125.3,-20.68 -255.94,-16.4 -376,23.61l-27.73 10.85z"/>
   <path class="fil0" d="M688.27 1133.78c-8.66,9.96 -28.38,56.45 -33.27,68.7 -3.24,8.1 -6.37,16.48 -9.27,25.17 -23.28,69.88 -31.29,137.21 -17.08,211.02 5.38,27.96 13.94,53.24 25.15,78.19l17.14 33.84c2.25,3.82 5.21,7.53 6.3,11.61 3.38,-2.26 15.86,-19.59 19.73,-24.37l52.94 -57.29c16.32,-16.41 54.85,-45.79 73.65,-58.63 4.69,-3.21 9.05,-5.52 13.53,-8.51 5.39,-3.58 24.99,-14.44 27.55,-17.93 -35.87,-8.36 -65.77,-25.88 -92.93,-46.24 -10.56,-7.92 -19.24,-17.11 -28.68,-26.44 -20.02,-19.79 -43.72,-59.37 -51.2,-89.34 -7.57,-30.37 -10.68,-54.83 -5.35,-86.41 0.94,-5.62 1.79,-7.69 1.79,-13.37z"/>
   <path class="fil0" d="M1594.93 1133.78c0,9.91 4.05,23.41 4.16,51.01 0.2,46.58 -26.51,105.42 -56.84,136.07 -4.88,4.93 -8.9,8.81 -13.8,13.75 -21.52,21.72 -78.88,57.36 -105.76,59.59 3.27,4.89 6.79,5.28 12.15,8.52l88.12 63.46c4.32,3.85 6.68,5.3 11,9.66 4.06,4.1 7,7.35 11.37,10.68 7.01,5.36 58.09,60.78 60.62,70.28 6.45,-1.72 10.99,-13.88 13.8,-19.28 4.01,-7.7 7.17,-15.55 11.01,-23.44 6.78,-13.96 13.52,-33.86 17.62,-49.89 15.7,-61.41 17.55,-119.83 4.09,-182.65 -8.6,-40.17 -32.48,-106.48 -53.43,-142.23l-4.11 -5.53z"/>
   <path class="fil0" d="M706.18 1724.9c4.06,-2.72 7.37,-5.74 11.85,-8.82 3.77,-2.59 9.31,-6 11.57,-9.09 -3.13,-4.69 -8.14,-13.68 -12.4,-16.54 -2.2,4.61 -10.56,28.96 -11.02,34.45z"/>
   <path class="fil0" d="M1554.97 1709.74c4.8,1.29 17.11,11.86 22.05,15.16 -0.11,-4.92 -8.47,-31.57 -12.4,-34.45l-9.65 19.29z"/>
   <path class="fil0" d="M1326.24 1352.87c-1.52,-1.41 2.41,-1.38 -4.14,-1.38 1.52,1.41 -2.41,1.38 4.14,1.38z"/>
   <polygon class="fil0" points="688.27,1133.78 689.65,1133.78 688.5,1132.17 "/>
   <polygon class="fil0" points="1594.93,1133.78 1594.93,1132.4 1593.32,1133.55 "/>
   <polygon class="fil0" points="622.13,1514.08 622.13,1515.46 623.74,1514.31 "/>
   <polygon class="fil0" points="1661.07,1514.08 1659.69,1514.08 1660.84,1515.69 "/>
   <path class="fil0" d="M1330.37 1355.62c0.14,0.14 0.41,-0.6 0.41,-0.41l0 0c-0.03,0.03 -0.55,0.28 -0.41,0.41z"/>
   <path class="fil0" d="M945.94 1359.76c0.13,0.13 0.41,-0.61 0.41,-0.42l0 0.01c-0.03,0.02 -0.55,0.27 -0.41,0.41z"/>
   <polygon class="fil0" points="1326.24,1352.87 1328.92,1354.45 "/>
   <polygon class="fil0" points="951.45,1357 948.49,1357.76 "/>
   <polygon class="fil0" points="622.13,1514.08 620.75,1512.7 "/>
   <polygon class="fil0" points="1662.45,1512.7 1661.07,1514.08 "/>
  </g>
 </g>
</svg>
