<?xml version="1.0" encoding="UTF-8"?>
<!DOCTYPE svg PUBLIC "-//W3C//DTD SVG 1.1//EN" "http://www.w3.org/Graphics/SVG/1.1/DTD/svg11.dtd">
<!-- Creator: CorelDRAW 2020 (64-Bit) -->
<svg xmlns="http://www.w3.org/2000/svg" xml:space="preserve" width="373.333mm" height="210mm" version="1.1" style="shape-rendering:geometricPrecision; text-rendering:geometricPrecision; image-rendering:optimizeQuality; fill-rule:evenodd; clip-rule:evenodd"
viewBox="0 0 37333.3 21000"
 xmlns:xlink="http://www.w3.org/1999/xlink"
 xmlns:xodm="http://www.corel.com/coreldraw/odm/2003">
 <defs>
  <style type="text/css">
   <![CDATA[
    .fil22 {fill:none}
    .fil2 {fill:#FEFEFE}
    .fil11 {fill:#7789A4}
    .fil5 {fill:#0D181D}
    .fil24 {fill:#0D181D}
    .fil8 {fill:#112026}
    .fil4 {fill:#1B323B}
    .fil23 {fill:#1B323B}
    .fil12 {fill:#348AC5}
    .fil7 {fill:#386677}
    .fil20 {fill:#386677}
    .fil6 {fill:#3F768A}
    .fil1 {fill:#71CEEF}
    .fil3 {fill:#AD2F3B}
    .fil17 {fill:#D13646}
    .fil13 {fill:#D9D8D3}
    .fil18 {fill:#DC3647}
    .fil25 {fill:#DC3647}
    .fil10 {fill:#DCF3FC}
    .fil16 {fill:#EA8691}
    .fil14 {fill:#F1F1F1}
    .fil9 {fill:#F1F1F1}
    .fil15 {fill:#F85F7C}
    .fil26 {fill:#F85F7C}
    .fil19 {fill:white}
    .fil30 {fill:white;fill-rule:nonzero;fill-opacity:0.149020}
    .fil21 {fill:white;fill-opacity:0.250980}
    .fil28 {fill:white;fill-rule:nonzero;fill-opacity:0.250980}
    .fil0 {fill:#0D181D;fill-opacity:0.501961}
    .fil29 {fill:white;fill-rule:nonzero;fill-opacity:0.501961}
    .fil27 {fill:white;fill-rule:nonzero;fill-opacity:0.650980}
   ]]>
  </style>
   <clipPath id="id0">
    <path d="M-2.37 7.13l37333.34 0 0 21000 -21567.47 0 -655.21 -656.26 -15110.66 0 0 -20343.74z"/>
   </clipPath>
     <mask id="id1">
  <linearGradient id="id2" gradientUnits="userSpaceOnUse" x1="17469.07" y1="11093.86" x2="17469.11" y2="21747.76">
   <stop offset="0" style="stop-opacity:0; stop-color:white"/>
   <stop offset="1" style="stop-opacity:1; stop-color:white"/>
  </linearGradient>
      <rect style="fill:url(#id2)" x="-12.07" y="-2499.07" width="37353.9" height="28051.12"/>
     </mask>
     <mask id="id3">
  <linearGradient id="id4" gradientUnits="userSpaceOnUse" x1="17469.07" y1="14809.41" x2="17469.11" y2="25463.31">
   <stop offset="0" style="stop-opacity:0; stop-color:white"/>
   <stop offset="1" style="stop-opacity:1; stop-color:white"/>
  </linearGradient>
      <rect style="fill:url(#id4)" x="-12.07" y="1216.48" width="37353.9" height="28051.12"/>
     </mask>
     <mask id="id5">
  <linearGradient id="id6" gradientUnits="userSpaceOnUse" x1="18067.63" y1="2818.51" x2="18067.63" y2="28692.32">
   <stop offset="0" style="stop-opacity:0; stop-color:white"/>
   <stop offset="1" style="stop-opacity:1; stop-color:white"/>
  </linearGradient>
      <rect style="fill:url(#id6)" x="5912.31" y="3242.24" width="25839.48" height="14249.79"/>
     </mask>
     <clipPath id="id7">
      <path d="M5761.96 15097.28l43.93 2164.19 117.76 11.22 -2.69 -933.97 292.1 0 0 -345.21 -303.16 -4.22 -10.62 -567.07 304.93 4.79 0 -362.91 -442.25 33.18z"/>
     </clipPath>
     <clipPath id="id8">
      <path d="M-2.37 7.13l37333.34 0 0 21000 -21567.47 0 -655.21 -656.26 -15110.66 0 0 -20343.74z"/>
     </clipPath>
     <clipPath id="id9">
      <path d="M6294.93 17325.27l192.87 8.87 50.48 -471.14 336.36 17.71 101.16 501.57 241.84 29.52 -504.16 -2340.4 -180.74 6.92 -237.81 2246.95z"/>
     </clipPath>
     <clipPath id="id10">
      <path d="M-2.37 7.13l37333.34 0 0 21000 -21567.47 0 -655.21 -656.26 -15110.66 0 0 -20343.74z"/>
     </clipPath>
     <clipPath id="id11">
      <path d="M7183.96 15078.21l238.99 0 0 1079.9 500.11 -1088.75 340.78 0 -455.85 969.24 579.77 1491.47 -286.18 -30.11 -444.07 -1160.41 -188.19 342.94 4.15 753.21 -203.95 -20.92 -85.56 -2336.57z"/>
     </clipPath>
     <clipPath id="id12">
      <path d="M-2.37 7.13l37333.34 0 0 21000 -21567.47 0 -655.21 -656.26 -15110.66 0 0 -20343.74z"/>
     </clipPath>
     <clipPath id="id13">
      <path d="M8430.98 15069.36l289.01 0 0 1649.69c0,0 -13.29,504.54 256.68,522.24 269.98,17.7 323.08,-354.06 323.08,-593.05 0,-239 0,-1579.99 0,-1579.99l305.39 0 -13.28 1774.72c0,0 -39.98,780.04 -593.2,744.63 -553.22,-35.41 -559.71,-775.6 -559.71,-1045.58 0,-269.97 -7.97,-1472.66 -7.97,-1472.66z"/>
     </clipPath>
     <clipPath id="id14">
      <path d="M-2.37 7.13l37333.34 0 0 21000 -21567.47 0 -655.21 -656.26 -15110.66 0 0 -20343.74z"/>
     </clipPath>
     <clipPath id="id15">
      <path d="M9886.4 15083.73l309.8 0 29.27 2130.29 824.9 42.74 0 416.02 -1124.13 -84.09 -39.84 -2504.96z"/>
     </clipPath>
     <clipPath id="id16">
      <path d="M-2.37 7.13l37333.34 0 0 21000 -21567.47 0 -655.21 -656.26 -15110.66 0 0 -20343.74z"/>
     </clipPath>
     <clipPath id="id17">
      <path d="M16853 15077.78l1726.05 -35.4 0 455.85 -642.85 6.63 14.39 2268.2 -389.47 0 -48.68 -2257.13 -655.01 0 -4.43 -438.15z"/>
     </clipPath>
     <clipPath id="id18">
      <path d="M-2.37 7.13l37333.34 0 0 21000 -21567.47 0 -655.21 -656.26 -15110.66 0 0 -20343.74z"/>
     </clipPath>
     <clipPath id="id19">
      <path d="M19004.2 15014.62l1584.42 0 0 433.72 -1119.71 0 0 610.75 1053.33 0 0 473.56 -1066.6 0 0 730.25 1190.52 0 0 438.14 -1646.38 0 4.42 -2686.42z"/>
     </clipPath>
     <clipPath id="id20">
      <path d="M-2.37 7.13l37333.34 0 0 21000 -21567.47 0 -655.21 -656.26 -15110.66 0 0 -20343.74z"/>
     </clipPath>
     <clipPath id="id21">
      <path d="M23378.55 14986.83l408.92 14.42c0,0 759.49,1775.76 755.07,1744.79 -4.43,-30.97 43.75,-1739.26 43.75,-1739.26l353.67 8.62 -56.64 2571.54 -358.72 17.74 -791.98 -1721.66 -26.55 1752.6 -371.77 4.42 44.25 -2653.21z"/>
     </clipPath>
     <clipPath id="id22">
      <path d="M-2.37 7.13l37333.34 0 0 21000 -21567.47 0 -655.21 -656.26 -15110.66 0 0 -20343.74z"/>
     </clipPath>
     <clipPath id="id23">
      <path d="M25401.98 14988.93l318.07 24.2 -68.03 2551.56 -314.23 2.22 64.19 -2577.98z"/>
     </clipPath>
     <clipPath id="id24">
      <path d="M-2.37 7.13l37333.34 0 0 21000 -21567.47 0 -655.21 -656.26 -15110.66 0 0 -20343.74z"/>
     </clipPath>
     <clipPath id="id25">
      <path d="M26087.79 14935.77l298.74 15.49 4.41 1086.52 637.31 -1146.26 378.29 16.26 -550.89 1019.36 584.19 1460.5 -380.61 30.97 -407.17 -1150.69 -243.42 362.92 0 858.59 -309.8 17.7 -11.05 -2571.36z"/>
     </clipPath>
     <clipPath id="id26">
      <path d="M-2.37 7.13l37333.34 0 0 21000 -21567.47 0 -655.21 -656.26 -15110.66 0 0 -20343.74z"/>
     </clipPath>
     <clipPath id="id27">
      <path d="M30583.01 14820.94l225.71 13.27 97.37 1451.65 190.31 -1433.94 194.34 13.26 -61.57 2177.48 -141.62 22.12 44.25 -1221.49 -159.33 1230.35 -171.17 28.52 -72.24 -1307.56 -48.68 1327.72 -153.15 24.01 55.78 -2325.39z"/>
     </clipPath>
     <clipPath id="id28">
      <path d="M-2.37 7.13l37333.34 0 0 21000 -21567.47 0 -655.21 -656.26 -15110.66 0 0 -20343.74z"/>
     </clipPath>
     <clipPath id="id29">
      <path d="M30395.19 15476.09c0,0 -31,-646.16 -477.99,-637.31 -241.18,4.77 -435.49,197.12 -533.25,540.52 -83.42,293.06 -102.64,866.73 -86.36,1070.47 35.37,442.55 260.74,793.4 610.38,771.27 349.63,-22.13 442.95,-421.64 442.95,-421.64l0 -863.02 -464.71 30.97 0 371.76 256.7 0 0 292.11c0,185.88 -199.28,342.14 -433.73,159.32 -234.45,-182.82 -81.36,-1363.49 61.96,-1491.48 143.32,-127.98 358.49,-66.38 398.32,256.7l225.73 -79.67z"/>
     </clipPath>
     <clipPath id="id30">
      <path d="M-2.37 7.13l37333.34 0 0 21000 -21567.47 0 -655.21 -656.26 -15110.66 0 0 -20343.74z"/>
     </clipPath>
     <clipPath id="id31">
      <path d="M28074.74 14862.68l289.92 13.27 0 1451.64c0,0 -48.74,598.72 236.71,634.11 74.7,9.26 166.2,-17.54 208.26,-88.26 118.65,-199.49 90.54,-652.06 90.54,-652.06l-4.44 -1349.86 243.42 -4.43 0 1597.7c0,0 26.54,805.48 -442.58,871.87 -469.13,66.39 -606.32,-371.76 -606.32,-619.6 0,-247.85 -15.51,-1854.38 -15.51,-1854.38z"/>
     </clipPath>
     <clipPath id="id32">
      <path d="M-2.37 7.13l37333.34 0 0 21000 -21567.47 0 -655.21 -656.26 -15110.66 0 0 -20343.74z"/>
     </clipPath>
     <mask id="id33">
  <linearGradient id="id34" gradientUnits="userSpaceOnUse" x1="8645" y1="16989.6" x2="274.98" y2="19237.86">
   <stop offset="0" style="stop-opacity:0; stop-color:white"/>
   <stop offset="1" style="stop-opacity:1; stop-color:white"/>
  </linearGradient>
      <rect style="fill:url(#id34)" x="2446.22" y="17196.03" width="5689.79" height="1538.33"/>
     </mask>
     <mask id="id35">
  <linearGradient id="id36" gradientUnits="userSpaceOnUse" x1="8626.23" y1="17145.56" x2="7314.82" y2="20472.94">
   <stop offset="0" style="stop-opacity:0; stop-color:white"/>
   <stop offset="1" style="stop-opacity:1; stop-color:white"/>
  </linearGradient>
      <rect style="fill:url(#id36)" x="6958.18" y="17529.37" width="3525.31" height="1920.32"/>
     </mask>
     <mask id="id37">
  <linearGradient id="id38" gradientUnits="userSpaceOnUse" x1="17808.46" y1="17658.6" x2="18444.52" y2="20576.98">
   <stop offset="0" style="stop-opacity:0; stop-color:white"/>
   <stop offset="1" style="stop-opacity:1; stop-color:white"/>
  </linearGradient>
      <rect style="fill:url(#id38)" x="16285.12" y="17672.68" width="3700.17" height="1933.8"/>
     </mask>
     <mask id="id39">
  <linearGradient id="id40" gradientUnits="userSpaceOnUse" x1="27505.37" y1="16558.21" x2="28864.04" y2="20628.51">
   <stop offset="0" style="stop-opacity:0; stop-color:white"/>
   <stop offset="1" style="stop-opacity:1; stop-color:white"/>
  </linearGradient>
      <rect style="fill:url(#id40)" x="23470.98" y="17328.7" width="7388.64" height="1736.35"/>
     </mask>
     <mask id="id41">
  <linearGradient id="id42" gradientUnits="userSpaceOnUse" x1="29990.11" y1="15620.51" x2="34494.84" y2="19970.94">
   <stop offset="0" style="stop-opacity:0; stop-color:white"/>
   <stop offset="1" style="stop-opacity:1; stop-color:white"/>
  </linearGradient>
      <rect style="fill:url(#id42)" x="28776.53" y="17004.92" width="5930.54" height="1306.99"/>
     </mask>
     <mask id="id43">
  <linearGradient id="id44" gradientUnits="userSpaceOnUse" x1="30705.79" y1="15261.54" x2="36502.53" y2="18329.95">
   <stop offset="0" style="stop-opacity:0; stop-color:white"/>
   <stop offset="1" style="stop-opacity:1; stop-color:white"/>
  </linearGradient>
      <rect style="fill:url(#id44)" x="29167.6" y="14314.68" width="5511.83" height="3964.65"/>
     </mask>
     <mask id="id45">
  <linearGradient id="id46" gradientUnits="userSpaceOnUse" x1="5176.49" y1="17200.8" x2="1672.97" y2="18567.64">
   <stop offset="0" style="stop-opacity:0; stop-color:white"/>
   <stop offset="1" style="stop-opacity:1; stop-color:white"/>
  </linearGradient>
      <rect style="fill:url(#id46)" x="2598.68" y="15461.86" width="3644.7" height="3272.5"/>
     </mask>
     <mask id="id47">
  <linearGradient id="id48" gradientUnits="userSpaceOnUse" x1="9246.83" y1="17021.07" x2="6100.15" y2="19566.12">
   <stop offset="0" style="stop-opacity:0; stop-color:white"/>
   <stop offset="1" style="stop-opacity:1; stop-color:white"/>
  </linearGradient>
      <rect style="fill:url(#id48)" x="7042.71" y="16264.27" width="4715.69" height="3185.42"/>
     </mask>
     <mask id="id49">
  <linearGradient id="id50" gradientUnits="userSpaceOnUse" x1="18343.66" y1="17316.67" x2="17666.97" y2="20366.75">
   <stop offset="0" style="stop-opacity:0; stop-color:white"/>
   <stop offset="1" style="stop-opacity:1; stop-color:white"/>
  </linearGradient>
      <rect style="fill:url(#id50)" x="16846.13" y="15376.67" width="3752.49" height="4210.72"/>
     </mask>
     <mask id="id51">
  <linearGradient id="id52" gradientUnits="userSpaceOnUse" x1="26189.9" y1="15019.75" x2="31684.31" y2="19996.03">
   <stop offset="0" style="stop-opacity:0; stop-color:white"/>
   <stop offset="1" style="stop-opacity:1; stop-color:white"/>
  </linearGradient>
      <rect style="fill:url(#id52)" x="22077.78" y="14599.1" width="8844.34" height="4465.95"/>
     </mask>
 </defs>
 <g id="Layer_x0020_1">
  <metadata id="CorelCorpID_0Corel-Layer"/>
  <g>
  </g>
  <g style="clip-path:url(#id0)">
   <g>
    <polygon class="fil0" points="-2.07,-2489.07 37331.83,-2489.07 37331.83,25542.05 -2.07,25542.05 "/>
    <polygon class="fil1" style="mask:url(#id1)" points="-2.07,-2489.07 37331.83,-2489.07 37331.83,25542.05 -2.07,25542.05 "/>
    <polygon class="fil2" style="mask:url(#id3)" points="-2.07,1226.48 37331.83,1226.48 37331.83,29257.6 -2.07,29257.6 "/>
    <path class="fil3" d="M5176.49 17200.8c0,0 7691.48,-1108.86 14646.47,-842.97 6955,265.89 10637.73,414.88 11925.63,630.55l-208.21 125.29 -2794.56 308.16 -3480.06 305.11 -4693.33 146.18 -4468.76 92.15 -3919.58 -133.13 -3285.49 -132.41 -1876.51 -150.48 -1582.17 -244.9 -263.43 -103.55z"/>
    <g id="_1604977095536">
     <polygon class="fil4" points="14001.25,14980.57 15460.24,14980.57 15460.24,12782.44 14368.75,12782.44 13994.83,12782.46 "/>
     <polygon class="fil4" points="15460.24,12782.44 15460.24,13922.02 16652.99,12903.74 16612.51,11145.09 15369.35,12287.18 14368.75,12287.18 14368.75,12782.44 "/>
     <polygon class="fil5" points="16652.99,12921.25 16652.99,15063.5 17451.44,15063.48 17449.24,12752.09 16652.93,12752.09 "/>
     <polygon class="fil4" points="19307.59,10972.76 19272.12,12751.74 19816.49,13722.4 19816.49,15096.97 19930.33,15096.64 19935.78,12653.61 19936.73,12233.59 "/>
     <polygon class="fil6" points="19307.59,10972.76 19936.73,12233.59 20388.51,12210.74 19740.83,10970.16 "/>
     <polygon class="fil4" points="20593.28,12609.87 20583.58,12610.52 20485.69,12617.02 20475,12206.36 19936.73,12233.59 20475,12206.37 19936.73,12233.59 19935.78,12653.61 19930.33,15096.64 20570.08,15094.85 "/>
     <polygon class="fil7" points="20593.28,12609.87 20570.08,15094.85 21188.01,15093.12 21181.06,12603.07 20847.51,12592.95 "/>
     <polygon class="fil8" points="19272.12,12751.74 19233.9,15553.39 19816.49,15504.17 19816.49,13722.4 "/>
     <polygon class="fil4" points="19492.64,7165.45 18941.01,6838.7 18941.01,6838.7 18779.55,6983.03 18780.63,7209.89 18786.29,8391.25 18799.74,11197.67 18780.69,12741.96 19272.12,12751.74 19166.2,12749.64 19195.73,9814.17 19060.3,9459.27 19060.3,6925.09 19086.88,6925.09 "/>
     <path class="fil7" d="M19811.37 11105.26l-8.51 -1297.28 -607.13 6.19 -29.53 2935.47 105.92 2.1 35.47 -1778.98 433.24 -2.6 70.54 135.1zm-167.69 -1645.99l4.65 -2027.61 0.36 -162.44 -156.05 -103.77 -405.76 -240.36 -26.58 0 0 2534.18 583.38 0z"/>
     <polygon class="fil1" points="18233.31,7497.95 18784.73,8062.87 18780.63,7209.89 18612.13,7097.55 "/>
     <polygon class="fil9" points="16782.95,7440.09 17137.34,6859.32 16359.1,6242.8 16004.63,6868.53 "/>
     <polygon class="fil1" points="16359.1,6242.8 17137.34,6859.32 17561.83,6399.44 17407.74,6284.88 17244.36,6163.43 16994.3,6487.35 16703.76,6285.01 16953,5946.83 16811.9,5841.94 "/>
     <polygon class="fil1" points="16703.76,6285.01 16994.65,6504.15 17434.75,5795.59 17142.96,5578.27 "/>
     <polygon class="fil10" points="17351.47,6054.03 17813.13,6375.64 18080.98,5924.09 18252.91,5789.05 17932.33,5548.5 17556.82,5886.53 17488.47,5835.62 "/>
     <polygon class="fil9" points="17434.75,5795.59 17556.82,5886.51 17943.47,5234.69 17180.37,4658.58 16824.06,5340.74 17142.96,5578.27 "/>
     <polygon class="fil1" points="17180.37,4658.58 17943.47,5234.69 18387.38,4798.81 18221.9,4680.6 17929.35,4471.62 17625.08,4254.31 "/>
     <polygon class="fil10" points="18387.38,4798.81 17943.47,5234.69 17556.82,5886.51 17932.32,5548.5 17877.77,5507.59 17994.01,5315.56 18185.07,5137.38 18236.71,5176.81 "/>
     <polygon class="fil11" points="18246.73,5220.88 18196.15,5184.16 17994.01,5315.56 17877.77,5507.59 17986.84,5589.4 18368.76,5875.97 18903.7,6277.32 19067.01,6028.31 19161.05,5884.68 "/>
     <polygon class="fil1" points="19465.96,5575.28 19067.01,6028.31 19872.77,6616.25 20246.74,6141.26 20025.53,5980.92 19760,5788.42 "/>
     <polygon class="fil9" points="19067.01,6028.31 18903.7,6277.32 18666.13,6639.57 19454.49,7210.62 19872.77,6616.25 "/>
     <polygon class="fil10" points="19970.21,5571.43 20241.67,5764.78 20060.18,5946.29 20378.14,6169.07 20792.56,5575.34 20052.99,5035.64 19873.01,5289.05 19635.27,5648.58 19801.05,5770.57 "/>
     <polygon class="fil1" points="20241.67,5764.78 19970.21,5571.44 19775.98,5800.01 20049.86,5999 "/>
     <polygon class="fil1" points="17724.05,6014.58 17509.65,5856.8 17244.36,6163.43 17466.62,6328.66 "/>
     <polygon class="fil1" points="20052.99,5035.64 20792.56,5575.34 21136.18,5130.63 20418.59,4594.95 20117.23,4945.17 "/>
     <polygon class="fil9" points="19896.34,5256.19 20117.23,4945.17 19178.07,4279.16 19138.76,4252.61 18975.14,4370.47 18887.31,4544.3 "/>
     <polygon class="fil12" points="18923.19,4570.8 18887.31,4544.3 18975.14,4370.47 19123.99,4235.38 19158.41,4265.89 19357.34,3867.23 18956.1,4289.77 18604.36,4898.17 "/>
     <polygon class="fil1" points="18125.75,3693.04 18956.1,4289.77 19357.34,3867.24 18589.21,3341.67 "/>
     <polygon class="fil10" points="18956.1,4289.77 18125.75,3693.04 17771.73,4327.41 18604.37,4898.17 "/>
     <polygon class="fil1" points="17950.77,4486.93 18215.73,4676.2 18476.75,4359.78 18208.3,4181.19 "/>
     <polygon class="fil9" points="19706.81,6911.83 19492.64,7165.45 19648.69,7269.22 19648.38,7413.17 19891.43,7067.77 "/>
     <polygon class="fil1" points="19706.81,6911.83 19891.43,7067.77 20275.52,6658.42 20053.16,6501.76 "/>
     <polygon class="fil10" points="20275.52,6658.42 19891.43,7067.77 19648.38,7413.17 19648.33,7431.66 20016.12,6993.18 "/>
     <polygon class="fil10" points="20053.16,6501.76 20246.74,6141.26 19872.77,6616.25 19454.49,7210.62 19492.64,7165.45 "/>
     <polygon class="fil1" points="17381.08,6787.07 17341.67,6759.61 17155.14,6896.57 17081.73,7127.15 17109.68,7145.68 17214.44,7062.31 17149.86,7168.97 17448.59,7367.04 18049.92,7763.39 18180.32,7575.98 18303.82,7423.44 "/>
     <polygon class="fil10" points="17381.08,6787.07 17561.83,6399.46 17137.34,6859.32 16782.95,7440.09 17109.68,7145.68 17081.73,7127.15 17155.14,6896.56 17341.67,6759.61 "/>
     <path class="fil10" d="M18180.32 7575.98l-1025.18 -679.41 -73.41 230.58 330.37 215.69 639.93 422.06 128.29 -188.92zm-29.64 -9.26l-15.24 -12.01 15.24 12.01z"/>
     <polygon class="fil9" points="17799.22,8137.19 18557.25,8718.36 18786.22,8373.11 18784.17,7947.14 18233.31,7497.95 "/>
     <polygon class="fil1" points="17994.01,5315.56 19032.74,6080.56 19067.01,6028.31 19181.59,5898.19 18185.07,5137.38 "/>
     <polygon class="fil10" points="19032.74,6080.56 17994.01,5315.56 17877.77,5507.59 17986.84,5589.4 18289.92,5816.81 18903.7,6277.32 "/>
     <polygon class="fil1" points="19093.5,4455.85 20005.01,5103.21 20117.23,4945.17 19178.07,4279.16 19123.99,4235.38 18975.14,4370.47 "/>
     <polygon class="fil5" points="15460.3,14980.57 14001.25,14980.57 14004.94,16188.52 15460.35,16188.52 "/>
     <polygon class="fil5" points="20570.08,15094.85 20033.17,15096.92 20033.17,16577.14 20559.47,16669.52 "/>
     <polygon class="fil5" points="20033.17,16197.29 20033.17,15096.92 19816.49,15096.97 19816.49,16213.74 "/>
     <polygon class="fil8" points="20570.08,15095.52 20559.47,16669.52 21190.93,16547.14 21188.01,15093.12 "/>
     <polygon class="fil7" points="20847.51,12592.95 20847.51,12230.37 20475,12206.36 20485.69,12617.02 "/>
     <polygon class="fil6" points="19643.68,9459.27 19060.3,9459.27 19195.73,9814.17 19802.86,9807.98 "/>
     <polygon class="fil13" points="18994.89,14916.01 17015.09,14889.26 17015.09,14544.18 18994.89,14544.18 "/>
     <polygon class="fil13" points="18994.89,15441.33 15722.26,15357.7 15722.26,14958.55 18994.89,15017.64 "/>
     <polygon class="fil13" points="18994.89,16026.25 14923.43,15907.61 14923.43,15458.67 18994.89,15567 "/>
     <polygon class="fil14" points="18994.89,16026.25 19816.49,15927.56 19816.49,15504.17 18993.23,15592.37 "/>
     <polygon class="fil13" points="19207.71,16739.13 13329.4,16556.23 13329.4,16081.18 19207.71,16147.67 "/>
     <polygon class="fil14" points="19207.71,16739.14 20033.17,16520.51 20033.17,16124.28 19207.71,16155.52 "/>
     <polygon class="fil13" points="19428.28,17699.81 11735.37,17231.95 11735.37,16733.67 19428.28,16999.81 "/>
     <polygon class="fil14" points="19428.28,17699.81 20616.25,17177.03 21192,17029.99 21190.67,16669.32 20559.47,16669.52 19428.28,17009.71 "/>
     <polygon class="fil14" points="21192,17029.99 23105.72,16855.16 23107.19,16445.24 21190.93,16547.14 "/>
     <polygon class="fil14" points="21190.35,16324.52 22249.71,16244.01 22249.71,15889.23 21189.28,15972.39 "/>
     <polygon class="fil14" points="21189.37,15814.08 21602.25,15780.18 21602.25,15439.94 21188.27,15461.95 "/>
     <polygon class="fil15" points="18994.89,14667.83 16920.92,14636.8 16920.92,14544.18 18994.89,14544.18 "/>
     <polygon class="fil15" points="18994.89,15114.82 15603.51,15068.99 15603.51,14958.55 18994.89,15017.64 "/>
     <polygon class="fil15" points="19071.69,15709.09 14775.68,15596.06 14775.68,15458.67 19069.21,15567.3 "/>
     <polygon class="fil16" points="19071.69,15709.09 19816.49,15627.1 19816.49,15504.17 19069.21,15567.3 "/>
     <polygon class="fil15" points="19253.27,16399.64 13182.86,16218.58 13182.86,16081.18 19250.68,16249.62 "/>
     <polygon class="fil16" points="19253.27,16399.64 20058.21,16258.52 20057.95,16125.23 19250.68,16249.62 "/>
     <polygon class="fil15" points="19502.15,17185.17 11584.73,16869.46 11584.73,16732.07 19497.24,17004.78 "/>
     <polygon class="fil16" points="19502.15,17185.17 20573.59,16807.94 21190.67,16669.32 21190.93,16547.14 20559.47,16669.52 19497.24,17004.78 "/>
     <polygon class="fil16" points="21190.67,16669.32 23192.28,16498.23 23192.28,16388.35 21190.93,16547.14 "/>
     <polygon class="fil16" points="21189.07,16060.88 22320.62,15966.16 22320.62,15883.67 21189.28,15972.39 "/>
     <polygon class="fil16" points="21188.08,15550.44 21687.36,15507.77 21687.36,15425.42 21188.27,15461.95 "/>
     <polygon class="fil17" points="11584.73,16732.07 19497.24,17004.78 19207.71,16739.13 13329.4,16556.23 13329.4,16510.98 "/>
     <polygon class="fil18" points="20559.47,16669.52 19497.24,17004.78 19207.71,16739.13 20033.17,16520.51 "/>
     <polygon class="fil18" points="23192.28,16388.35 21190.93,16547.14 21190.35,16324.52 22108.15,16256.32 22108.15,16254.78 22249.71,16244.01 22249.71,16203.66 "/>
     <polygon class="fil18" points="22320.62,15883.67 21189.28,15972.39 21189.35,15808.16 21189.37,15814.08 21602.25,15780.18 21602.25,15752.4 "/>
     <path class="fil18" d="M21687.36 15425.42l-498.61 39.11 -0.26 -130.26 498.87 91.15zm-1120.1 87.84l0 0 1.06 -158.42 0.02 0 -1.08 158.42z"/>
     <polygon class="fil17" points="19250.68,16249.62 18994.89,16026.25 14923.43,15907.61 14923.43,15890.38 13182.86,16081.18 "/>
     <polygon class="fil18" points="19250.68,16249.62 18994.89,16026.25 19661.9,15946.12 19816.49,15927.56 19816.49,16056.86 20057.95,16125.23 "/>
     <polygon class="fil17" points="18993.04,15017.62 15603.51,14958.55 17015.09,14889.26 18994.89,14916.01 "/>
     <polygon class="fil5" points="19233.9,15553.39 19272.12,12754.83 18780.69,12741.96 18759.34,15018.23 18759.34,15456.97 "/>
     <polygon class="fil17" points="14775.68,15458.67 19069.21,15567.3 19233.9,15553.39 18759.34,15456.97 18759.34,15435.31 15722.26,15357.7 15722.26,15339.3 "/>
     <polygon class="fil10" points="18215.73,4676.2 18270.53,4716.74 18394.4,4554.36 18476.75,4359.78 "/>
     <polygon class="fil10" points="20049.86,5998.99 20091.07,6028.43 20191.84,5905.87 20241.67,5764.78 "/>
     <polygon class="fil10" points="17466.62,6328.66 17501.96,6354.94 17663.37,6160.86 17724.05,6014.58 "/>
     <polygon class="fil10" points="16982.23,6506.33 17154.51,6367.95 17488.47,5835.62 17434.75,5795.59 "/>
     <polygon class="fil10" points="20792.56,5575.34 20378.14,6169.1 20795.47,5652.02 21136.18,5130.63 "/>
     <polygon class="fil12" points="18786.22,8373.11 18557.25,8718.36 18786.41,8415.01 "/>
     <polygon class="fil4" points="16652.93,12752.09 17449.24,12752.09 17441.56,7092.91 17155.14,6896.55 16951.57,7198.58 16955.82,9451.99 16622.02,9737.7 16612.51,11145.09 16652.99,12903.74 "/>
     <polygon class="fil19" points="18782.51,7652.26 18780.74,7280.46 18626.19,7510.36 "/>
     <polygon class="fil12" points="18252.91,5789.03 18080.98,5924.09 17813.13,6375.64 18133.42,6060.38 18289.92,5816.83 "/>
     <polygon class="fil1" points="18252.91,5789.03 17932.32,5548.5 17769.92,5694.7 18080.98,5924.09 "/>
     <polygon class="fil1" points="18096.87,5971.12 18775.64,6472.59 18856.47,6349.36 18224.65,5868.99 "/>
     <polygon class="fil10" points="18775.64,6472.6 18096.87,5971.12 18024.72,6090.32 18092.41,6141.09 18280.54,6282.26 18697.9,6591.12 "/>
    </g>
    <path class="fil1" style="mask:url(#id5)" d="M30061.25 16817.23c0,363.31 -4937.86,664.8 -11471.14,664.8 -6533.28,0 -11337.87,-175.96 -11337.87,-539.27l-1329.93 -13690.52 25819.48 0 -1680.54 13564.99z"/>
    <g id="_1604977153664">
     <polygon class="fil20" points="5761.96,15097.28 5805.89,17261.47 5923.65,17272.69 5920.96,16338.72 6213.06,16338.72 6213.06,15993.51 5909.9,15989.29 5899.28,15422.22 6204.21,15427.01 6204.21,15064.1 "/>
    </g>
    <g style="clip-path:url(#id7)">
     <g>
      <polygon id="1" class="fil21" points="2456.22,18558.69 2768.01,18724.36 7918.65,18378.82 7924.89,17706.27 7757.26,17689.31 7757.26,17521.82 8126.01,17502.52 8126.01,14492.92 5622.47,14492.92 5622.47,17206.03 5318.54,17228.37 5318.39,17346.43 5453.73,17372.97 5453.73,18079.76 "/>
     </g>
    </g>
    <g style="clip-path:url(#id8)">
     <polygon class="fil22" points="5761.96,15097.28 5805.89,17261.47 5923.65,17272.69 5920.96,16338.72 6213.06,16338.72 6213.06,15993.51 5909.9,15989.29 5899.28,15422.22 6204.21,15427.01 6204.21,15064.1 "/>
     <polygon class="fil23" points="6532.74,15078.32 6532.79,15415.99 6204.21,15427.01 6204.21,15064.1 "/>
     <polygon class="fil23" points="6239.92,15954.99 6241.36,15426.46 5899.28,15422.22 5909.9,15989.29 "/>
     <polygon class="fil24" points="6488.04,15983.98 6239.92,15954.99 5894.41,15989.07 6213.06,15993.51 "/>
     <polygon class="fil23" points="6213.06,16338.72 6485.89,16329.89 6488.04,15983.98 6213.06,15993.51 "/>
     <polygon class="fil23" points="5923.65,17272.69 6240.38,17254.39 6247.24,16337.6 5920.96,16338.72 "/>
    </g>
    <g id="_1604977154864">
     <polygon class="fil20" points="6294.93,17325.27 6487.8,17334.14 6538.28,16863 6874.64,16880.71 6975.8,17382.28 7217.64,17411.8 6713.48,15071.4 6532.74,15078.32 "/>
    </g>
    <g style="clip-path:url(#id9)">
     <g>
      <polygon id="1" class="fil21" points="2456.22,18558.69 2768.01,18724.36 7918.65,18378.82 7924.89,17706.27 7757.26,17689.31 7757.26,17521.82 8126.01,17502.52 8126.01,14492.92 5622.47,14492.92 5622.47,17206.03 5318.54,17228.37 5318.39,17346.43 5453.73,17372.97 5453.73,18079.76 "/>
     </g>
    </g>
    <g style="clip-path:url(#id10)">
     <polygon class="fil22" points="6294.93,17325.27 6487.8,17334.14 6538.28,16863 6874.64,16880.71 6975.8,17382.28 7217.64,17411.8 6713.48,15071.4 6532.74,15078.32 "/>
     <polygon class="fil24" points="6641.26,15682.42 6566.02,16450.28 6800.59,16403.81 "/>
     <polygon class="fil23" points="6817.2,16468.95 6566.02,16450.28 6800.59,16403.81 "/>
     <polygon class="fil23" points="6713.48,15071.4 7020.91,15072.77 7547.61,17354.22 7217.64,17411.8 "/>
     <polygon class="fil24" points="6487.8,17334.14 6818.05,17284.47 6858.46,16879.85 6538.28,16863 "/>
    </g>
    <g id="_1604977152944">
     <polygon class="fil23" points="7736.32,15074.9 7422.95,15078.21 7422.95,16158.11 7743.18,15460.97 "/>
     <polygon class="fil24" points="8263.84,15069.36 8598.12,15069.36 8124.57,16024.24 7807.99,16038.6 "/>
     <polygon class="fil23" points="8387.76,17530.07 8706.56,17480.3 8124.57,16024.24 7807.99,16038.6 "/>
     <polygon class="fil24" points="7473.47,17435.7 7810.38,17387.36 7806.68,16729.33 7657.51,16339.55 7469.32,16682.49 "/>
     <polygon class="fil20" points="7183.96,15078.21 7422.95,15078.21 7422.95,16158.11 7923.06,15069.36 8263.84,15069.36 7807.99,16038.6 8387.76,17530.07 8101.58,17499.96 7657.51,16339.55 7469.32,16682.49 7473.47,17435.7 7269.52,17414.78 "/>
    </g>
    <g style="clip-path:url(#id11)">
     <g>
      <polygon id="1" class="fil21" points="2456.22,18558.69 2768.01,18724.36 7918.65,18378.82 7924.89,17706.27 7757.26,17689.31 7757.26,17521.82 8126.01,17502.52 8126.01,14492.92 5622.47,14492.92 5622.47,17206.03 5318.54,17228.37 5318.39,17346.43 5453.73,17372.97 5453.73,18079.76 "/>
     </g>
    </g>
    <g style="clip-path:url(#id12)">
     <polygon class="fil22" points="7183.96,15078.21 7422.95,15078.21 7422.95,16158.11 7923.06,15069.36 8263.84,15069.36 7807.99,16038.6 8387.76,17530.07 8101.58,17499.96 7657.51,16339.55 7469.32,16682.49 7473.47,17435.7 7269.52,17414.78 "/>
    </g>
    <g id="_1604977153184">
     <path class="fil23" d="M9009.98 15066.04l0 1686.21c0,0 13.03,311.49 196.84,357.11 183.8,45.63 -267.63,191.69 -267.63,191.69l-283.24 -194.74c0,0 -39.84,-402.74 -30.99,-451.43 8.86,-48.69 35.41,-380.61 35.41,-380.61l-57.54 -880.73 117.16 -324.18 289.99 -3.32z"/>
     <path class="fil24" d="M9523.39 15158.96l81.75 -90.71 239.12 0 0 1805.67c0,0 -33.8,829.88 -845.6,713.68 0,0 369.87,-324.2 378.72,-350.76 8.85,-26.55 146.01,-2077.88 146.01,-2077.88z"/>
     <path class="fil20" d="M8430.98 15069.36l289.01 0 0 1649.69c0,0 -13.29,504.54 256.68,522.24 269.98,17.7 323.08,-354.06 323.08,-593.05 0,-239 0,-1579.99 0,-1579.99l305.39 0 -13.28 1774.72c0,0 -39.98,780.04 -593.2,744.63 -553.22,-35.41 -559.71,-775.6 -559.71,-1045.58 0,-269.97 -7.97,-1472.66 -7.97,-1472.66z"/>
    </g>
    <g style="clip-path:url(#id13)">
     <g>
      <polygon id="1" class="fil21" points="6968.18,19284.24 7929.3,19439.69 10454.7,18595.48 10454.7,17902.07 10266.28,17888.91 10266.28,17691.52 10473.49,17629.62 10473.49,14692.35 8367.84,14692.35 8440.51,17539.37 8207.61,17559.95 8207.61,17733.53 8402.41,17751.37 8402.41,18425.63 "/>
     </g>
    </g>
    <g style="clip-path:url(#id14)">
     <path class="fil22" d="M8430.98 15069.36l289.01 0 0 1649.69c0,0 -13.29,504.54 256.68,522.24 269.98,17.7 323.08,-354.06 323.08,-593.05 0,-239 0,-1579.99 0,-1579.99l305.39 0 -13.28 1774.72c0,0 -39.98,780.04 -593.2,744.63 -553.22,-35.41 -559.71,-775.6 -559.71,-1045.58 0,-269.97 -7.97,-1472.66 -7.97,-1472.66z"/>
    </g>
    <g id="_1604977149824">
     <path class="fil23" d="M10103.29 15165.59l92.91 -81.86 247.89 6.18 17.68 2065.05 -236.3 59.06c0,0 -137.65,-984.04 -137.65,-1015.03 0,-30.98 15.47,-1033.4 15.47,-1033.4z"/>
     <polygon class="fil23" points="11050.37,17256.76 11284.99,17194.79 10461.77,17154.96 10225.47,17214.02 "/>
     <polygon class="fil24" points="11050.37,17672.78 11284.55,17607.05 11284.99,17194.79 11050.37,17256.76 "/>
     <polygon class="fil20" points="9886.4,15083.73 10196.2,15083.73 10225.47,17214.02 11050.37,17256.76 11050.37,17672.78 9926.24,17588.69 "/>
    </g>
    <g style="clip-path:url(#id15)">
     <g>
      <polygon id="1" class="fil21" points="6968.18,19284.24 7929.3,19439.69 10454.7,18595.48 10454.7,17902.07 10266.28,17888.91 10266.28,17691.52 10473.49,17629.62 10473.49,14692.35 8367.84,14692.35 8440.51,17539.37 8207.61,17559.95 8207.61,17733.53 8402.41,17751.37 8402.41,18425.63 "/>
     </g>
    </g>
    <g style="clip-path:url(#id16)">
     <polygon class="fil22" points="9886.4,15083.73 10196.2,15083.73 10225.47,17214.02 11050.37,17256.76 11050.37,17672.78 9926.24,17588.69 "/>
    </g>
    <g id="_1604977149920">
     <polygon class="fil23" points="12213.41,15225.29 12331.55,15140.2 12474.54,15141.19 12474.54,15561.64 12331.55,15569.49 "/>
     <polygon class="fil23" points="11943.45,15442.15 11943.45,15569.49 11943.45,17677.15 11753.99,17753.57 11620.37,17486.84 11620.37,15530.66 "/>
     <polygon class="fil20" points="10826.79,15135.77 12331.55,15140.2 12331.55,15569.49 11745.13,15569.49 11753.99,17753.57 11406.6,17728.13 11392.21,15558.41 10833.47,15558.41 "/>
    </g>
    <g id="_1604977146848">
     <path class="fil20" d="M12196.89 17684.66l685.99 -2589.06 406.06 -16.59 895.38 2624.76 -420.72 3.02 -199.16 -579.77 -796.64 0 -154.9 566.5 -416.01 -8.86zm1203.8 -1075.45c-13.28,-44.26 -199.16,-624.04 -199.16,-624.04l-117.11 628.98 316.27 -4.94z"/>
     <polygon class="fil24" points="13099.73,15688.65 12865.17,16671.17 13084.42,16614.15 13201.53,15985.17 "/>
     <polygon class="fil23" points="13415.21,16662.95 12865.17,16671.17 13084.42,16614.15 13400.69,16609.21 "/>
     <polygon class="fil23" points="13288.94,15079.01 13487.02,15095.6 14334.58,17668.08 14184.32,17703.77 "/>
     <polygon class="fil24" points="12612.9,17693.52 12801.04,17659.22 12929.4,17127.02 12767.8,17127.02 "/>
    </g>
    <g id="_1604977144976">
     <path class="fil23" d="M14786 16907.89l64.09 -106.2 143.91 -44.28c0,0 84.2,605.98 592,445.72 507.81,-160.25 -78.61,324.35 -151.64,306.65 -73.02,-17.69 -714.75,-39.83 -750.16,-146.05 -35.41,-106.21 -108.43,-318.65 -86.3,-340.78 22.13,-22.13 188.1,-115.06 188.1,-115.06z"/>
     <polygon class="fil23" points="14398.67,16876.94 14622.24,16801.66 14994,16757.41 14841.3,16816.26 "/>
     <path class="fil24" d="M16053.89 15790.42l84.19 -44.29c0,0 -43.46,-535.99 -441.78,-704.16 -398.32,-168.16 -880.52,-39.06 -985.78,115.85 -105.26,154.91 243.65,121.4 259.14,119.18 15.5,-2.21 672.74,-61.96 710.35,-39.83 37.62,22.13 245.62,254.48 265.54,298.74 19.92,44.26 108.34,254.51 108.34,254.51z"/>
     <path class="fil23" d="M15668.98 17668.02c814.34,-336.35 695.68,-1144.12 213.28,-1427.37 -482.39,-283.26 -826.21,-257.76 -888.18,-439.21 -61.96,-181.46 121.91,-488.53 476.98,-304.01 355.06,184.52 -47.68,-204.95 -47.68,-204.95 0,0 -565.25,-78.67 -596.85,-12.79 -31.61,65.89 -283.88,402.25 -230.77,464.21 53.12,61.96 199.15,300.95 323.08,362.91 123.93,61.97 504.54,203.58 655.02,300.95 150.47,97.37 95.12,1260.26 95.12,1260.26z"/>
     <path class="fil20" d="M15604.68 15825.82l449.21 -35.4c0,0 -81.88,-745.76 -754.59,-778.95 -672.72,-33.19 -851.94,378.42 -847.52,825.42 4.43,446.99 481.27,652.29 827.61,774.51 346.35,122.21 424.88,331.93 345.21,526.66 -79.67,194.73 -376.19,238.99 -539.94,150.47 -163.75,-88.52 -216.81,-277.55 -243.36,-472.27l-442.63 60.68c0,0 -13.28,716.96 557.65,818.75 570.92,101.8 858.59,-44.26 1026.77,-261.11 90.4,-116.59 187.83,-357.28 138.54,-607.45 -158.6,-804.81 -1031.44,-638.68 -1209.93,-983.21 -95.14,-183.67 4.78,-480.6 294.67,-471.74 369.56,24.36 398.31,453.64 398.31,453.64z"/>
    </g>
    <g id="_1604977143104">
     <polygon class="fil20" points="16853,15077.78 18579.05,15042.38 18579.05,15498.23 17936.2,15504.86 17950.59,17773.06 17561.12,17773.06 17512.44,15515.93 16857.43,15515.93 "/>
    </g>
    <g style="clip-path:url(#id17)">
     <g>
      <polygon id="1" class="fil21" points="17514.65,19596.48 18449.74,19577.39 19838.41,18797.8 19838.41,17988.71 19975.29,17986.5 19975.29,17830.77 19836.49,17833.45 19684.25,17701.04 19684.25,14409.69 16653,14409.69 16653,17682.68 16295.12,17849.73 16295.57,18043.39 16599.65,18042.33 16599.65,18826.86 "/>
     </g>
    </g>
    <g style="clip-path:url(#id18)">
     <polygon class="fil22" points="16853,15077.78 18579.05,15042.38 18579.05,15498.23 17936.2,15504.86 17950.59,17773.06 17561.12,17773.06 17512.44,15515.93 16857.43,15515.93 "/>
     <polygon class="fil23" points="18015.88,17724.34 17950.59,17773.06 17936.2,15504.86 17999.37,15504.19 "/>
     <polygon class="fil23" points="18579.05,15042.38 18615.65,15047.85 18615.65,15488.21 18579.05,15498.23 "/>
    </g>
    <g id="_1604977143440">
     <polygon class="fil20" points="19004.2,15014.62 20588.62,15014.62 20588.62,15448.34 19468.91,15448.34 19468.91,16059.09 20522.24,16059.09 20522.24,16532.65 19455.64,16532.65 19455.64,17262.9 20646.16,17262.9 20646.16,17701.04 18999.78,17701.04 "/>
    </g>
    <g style="clip-path:url(#id19)">
     <g>
      <polygon id="1" class="fil21" points="17514.65,19596.48 18449.74,19577.39 19838.41,18797.8 19838.41,17988.71 19975.29,17986.5 19975.29,17830.77 19836.49,17833.45 19684.25,17701.04 19684.25,14409.69 16653,14409.69 16653,17682.68 16295.12,17849.73 16295.57,18043.39 16599.65,18042.33 16599.65,18826.86 "/>
     </g>
    </g>
    <g style="clip-path:url(#id20)">
     <polygon class="fil22" points="19004.2,15014.62 20588.62,15014.62 20588.62,15448.34 19468.91,15448.34 19468.91,16059.09 20522.24,16059.09 20522.24,16532.65 19455.64,16532.65 19455.64,17262.9 20646.16,17262.9 20646.16,17701.04 18999.78,17701.04 "/>
     <polygon class="fil23" points="20433.73,16014.84 20522.24,16059.09 19468.91,16059.09 19468.91,16014.84 "/>
     <polygon class="fil23" points="20646.16,17262.9 20548.81,17192.08 19455.64,17192.08 19455.64,17262.9 "/>
     <polygon class="fil23" points="18976.54,15016.85 19004.2,15014.62 18999.78,17701.04 18966.55,17649.05 "/>
    </g>
    <g id="_1604977140656">
     <polygon class="fil20" points="21102.89,15011.27 21527.75,15011.27 21527.75,16188.52 22412.9,14998 22948.42,14998 22173.92,16033.62 22957.27,17609.18 22443.88,17640.16 21877.39,16405.38 21532.18,16861.23 21532.18,17653.44 21098.46,17649.02 "/>
     <polygon class="fil23" points="21017.59,15027.82 21102.89,15011.27 21098.46,17649.02 21012.06,17604.71 "/>
     <polygon class="fil24" points="22251.19,15020.09 22412.9,14998 21527.75,16188.52 21527.75,16020.29 "/>
     <polygon class="fil23" points="22443.88,17640.16 22324.52,17602.45 21808.42,16496.44 21877.39,16405.38 "/>
    </g>
    <g id="_1604977140128">
     <path class="fil20" d="M23378.55 14986.83l408.92 14.42c0,0 759.49,1775.76 755.07,1744.79 -4.43,-30.97 43.75,-1739.26 43.75,-1739.26l353.67 8.62 -56.64 2571.54 -358.72 17.74 -791.98 -1721.66 -26.55 1752.6 -371.77 4.42 44.25 -2653.21z"/>
    </g>
    <g style="clip-path:url(#id21)">
     <g>
      <polygon id="1" class="fil21" points="30849.62,18877.72 30168.59,19055.05 23603.53,18692.17 23603.53,17860.66 23807.17,17852.63 23799.2,17694.86 23412.66,17639.1 23480.98,14243.06 27643.73,14313.62 27643.73,17338.7 27963.71,17414.37 27963.71,17599.45 27664.04,17624.4 27664.04,18431.97 "/>
     </g>
    </g>
    <g style="clip-path:url(#id22)">
     <path class="fil22" d="M23378.55 14986.83l408.92 14.42c0,0 759.49,1775.76 755.07,1744.79 -4.43,-30.97 43.75,-1739.26 43.75,-1739.26l353.67 8.62 -56.64 2571.54 -358.72 17.74 -791.98 -1721.66 -26.55 1752.6 -371.77 4.42 44.25 -2653.21z"/>
     <polygon class="fil24" points="24419.36,15026.85 24586.29,15006.78 24542.54,16746.04 24376.84,16372.27 "/>
     <polygon class="fil23" points="23236.47,14997.95 23378.55,14986.83 23334.3,17640.04 23169.33,17572.53 "/>
     <polygon class="fil23" points="24329.93,17547.51 24524.6,17604.68 23732.62,15883.02 23727.45,16223.64 "/>
    </g>
    <g id="_1604977135760">
     <polygon class="fil20" points="25401.98,14988.93 25720.05,15013.13 25652.02,17564.69 25337.79,17566.91 "/>
    </g>
    <g style="clip-path:url(#id23)">
     <g>
      <polygon id="1" class="fil21" points="30849.62,18877.72 30168.59,19055.05 23603.53,18692.17 23603.53,17860.66 23807.17,17852.63 23799.2,17694.86 23480.98,17638.29 23480.98,14243.06 27643.73,14313.62 27643.73,17338.7 27963.71,17414.37 27963.71,17599.45 27664.04,17624.4 27664.04,18431.97 "/>
     </g>
    </g>
    <g style="clip-path:url(#id24)">
     <polygon class="fil22" points="25401.98,14988.93 25720.05,15013.13 25652.02,17564.69 25337.79,17566.91 "/>
     <polygon class="fil23" points="25149.08,15011.02 25401.98,14988.93 25337.79,17566.91 25089.87,17520.43 "/>
    </g>
    <g id="_1604977137872">
     <polygon class="fil20" points="26087.79,14935.77 26386.53,14951.26 26390.94,16037.78 27028.25,14891.52 27406.54,14907.78 26855.65,15927.14 27439.84,17387.64 27059.23,17418.61 26652.06,16267.92 26408.64,16630.84 26408.64,17489.43 26098.84,17507.13 "/>
    </g>
    <g style="clip-path:url(#id25)">
     <g>
      <polygon id="1" class="fil21" points="30849.62,18877.72 30168.59,19055.05 23603.53,18692.17 23603.53,17860.66 23807.17,17852.63 23799.2,17694.86 23480.98,17638.29 23480.98,14243.06 27643.73,14313.62 27643.73,17338.7 27963.71,17414.37 27963.71,17599.45 27664.04,17624.4 27664.04,18431.97 "/>
     </g>
    </g>
    <g style="clip-path:url(#id26)">
     <polygon class="fil22" points="26087.79,14935.77 26386.53,14951.26 26390.94,16037.78 27028.25,14891.52 27406.54,14907.78 26855.65,15927.14 27439.84,17387.64 27059.23,17418.61 26652.06,16267.92 26408.64,16630.84 26408.64,17489.43 26098.84,17507.13 "/>
     <polygon class="fil23" points="25862.03,17454.01 26098.84,17507.13 26087.79,14935.77 25817.72,14973.38 "/>
     <polygon class="fil23" points="27059.23,17418.61 26804.61,17392.03 26481.81,16521.74 26652.06,16267.92 "/>
     <polygon class="fil24" points="27028.25,14891.52 26736.12,14915.64 26388.83,15542.12 26390.94,16037.78 "/>
    </g>
    <g id="_1604977134224">
     <polygon class="fil23" points="30255.3,14865.2 30583.01,14820.94 30527.23,17146.33 30188.85,17133.38 "/>
     <polygon class="fil23" points="30863.73,17005.04 30801.3,17102.16 30649.08,17091.34 30609.25,16102.18 30642.45,15535.67 30994.45,15620.06 31213.37,15664.01 31142.55,17011.65 31087.55,17064.78 "/>
     <path class="fil24" d="M30777.56 14874.05l318.84 -22.13 41.85 812.12 -203.58 801.06c0,0 -115.07,-101.8 -128.35,-159.33 -13.27,-57.53 -53.11,-951.53 -53.11,-982.51 0,-30.98 24.35,-449.21 24.35,-449.21z"/>
     <polygon class="fil20" points="30583.01,14820.94 30808.72,14834.21 30906.09,16285.86 31096.4,14851.92 31290.74,14865.18 31229.17,17042.66 31087.55,17064.78 31131.8,15843.29 30972.47,17073.64 30801.3,17102.16 30729.06,15794.6 30680.38,17122.32 30527.23,17146.33 "/>
    </g>
    <g style="clip-path:url(#id27)">
     <g>
      <polygon id="1" class="fil21" points="34697.07,17936.24 34600.84,18001.72 28924.14,18301.91 28924.14,17516.53 29126.28,17496.45 29131.39,17308.38 28786.53,17312.96 28786.53,14434.91 31323.59,14602.48 31323.59,17014.92 31534.74,17030.9 31534.74,17167.79 31323.51,17209.12 31301.33,17932.53 "/>
     </g>
    </g>
    <g style="clip-path:url(#id28)">
     <polygon class="fil22" points="30583.01,14820.94 30808.72,14834.21 30906.09,16285.86 31096.4,14851.92 31290.74,14865.18 31229.17,17042.66 31087.55,17064.78 31131.8,15843.29 30972.47,17073.64 30801.3,17102.16 30729.06,15794.6 30680.38,17122.32 30527.23,17146.33 "/>
    </g>
    <g id="_1604977134032">
     <path class="fil23" d="M29850.81 15569.04l318.65 -13.28 22.13 -283.25 -238.99 -110.64 -221.29 92.93 -53.11 61.97 92.94 -17.71c0,0 61.97,61.97 79.67,269.98z"/>
     <path class="fil23" d="M29819.78 16308.09l0 298.74c0,0 -70.71,158.22 -241.2,154.9 -170.5,-3.32 232.35,201.37 232.35,201.37 0,0 380.61,53.11 402.74,-77.45 22.13,-130.56 -30.98,-597.47 -30.98,-597.47l-362.91 19.91z"/>
     <polygon class="fil24" points="29600.71,15971.73 29886.21,15967.35 29886.21,16339.11 29596.28,16336.85 "/>
     <path class="fil23" d="M30049.88 15031.24l32.61 -160.81c0,0 -439.78,-164.5 -705.33,50.16 -265.55,214.65 -400.54,874.49 -338.61,1400.7 61.92,526.21 177.31,996.87 927.32,892.32 0,0 -397.33,-379.34 -412.82,-410.37 -15.48,-31.03 -107.35,-1021.89 -107.35,-1021.89 0,0 195.26,-786.56 604.18,-750.11z"/>
     <path class="fil20" d="M30395.19 15476.09c0,0 -31,-646.16 -477.99,-637.31 -241.18,4.77 -435.49,197.12 -533.25,540.52 -83.42,293.06 -102.64,866.73 -86.36,1070.47 35.37,442.55 260.74,793.4 610.38,771.27 349.63,-22.13 442.95,-421.64 442.95,-421.64l0 -863.02 -464.71 30.97 0 371.76 256.7 0 0 292.11c0,185.88 -199.28,342.14 -433.73,159.32 -234.45,-182.82 -81.36,-1363.49 61.96,-1491.48 143.32,-127.98 358.49,-66.38 398.32,256.7l225.73 -79.67z"/>
    </g>
    <g style="clip-path:url(#id29)">
     <g>
      <polygon id="1" class="fil21" points="34697.07,17936.24 34600.84,18001.72 28924.14,18301.91 28924.14,17516.53 29126.28,17496.45 29131.39,17308.38 28786.53,17312.96 28786.53,14434.91 31323.59,14602.48 31323.59,17014.92 31534.74,17030.9 31534.74,17167.79 31323.51,17209.12 31301.33,17932.53 "/>
     </g>
    </g>
    <g style="clip-path:url(#id30)">
     <path class="fil22" d="M30395.19 15476.09c0,0 -31,-646.16 -477.99,-637.31 -241.18,4.77 -435.49,197.12 -533.25,540.52 -83.42,293.06 -102.64,866.73 -86.36,1070.47 35.37,442.55 260.74,793.4 610.38,771.27 349.63,-22.13 442.95,-421.64 442.95,-421.64l0 -863.02 -464.71 30.97 0 371.76 256.7 0 0 292.11c0,185.88 -199.28,342.14 -433.73,159.32 -234.45,-182.82 -81.36,-1363.49 61.96,-1491.48 143.32,-127.98 358.49,-66.38 398.32,256.7l225.73 -79.67z"/>
    </g>
    <g id="_1604977132832">
     <path class="fil23" d="M27790.77 14894.17l283.97 -31.49 15.51 1854.38 606.32 619.6c0,0 -379.4,73.25 -636.87,-86.41 -257.47,-159.65 -256.19,-576.87 -256.19,-576.87l-12.74 -1779.21z"/>
     <path class="fil24" d="M28593.99 14883.09l301.74 -11.57c0,0 74.42,1821.65 65.57,1848.21 -8.86,26.55 -221.28,411.59 -252.27,389.46 -30.98,-22.13 -345.21,-230.14 -345.21,-230.14l74.9 -40.67c0,0 168.52,84.93 168.52,-503.69 0,-588.63 -13.25,-1451.6 -13.25,-1451.6z"/>
     <path class="fil20" d="M28074.74 14862.68l289.92 13.27 0 1451.64c0,0 -48.74,598.72 236.71,634.11 74.7,9.26 166.2,-17.54 208.26,-88.26 118.65,-199.49 90.54,-652.06 90.54,-652.06l-4.44 -1349.86 243.42 -4.43 0 1597.7c0,0 26.54,805.48 -442.58,871.87 -469.13,66.39 -606.32,-371.76 -606.32,-619.6 0,-247.85 -15.51,-1854.38 -15.51,-1854.38z"/>
    </g>
    <g style="clip-path:url(#id31)">
     <g>
      <polygon id="1" class="fil21" points="34697.07,17936.24 34600.84,18001.72 28924.14,18301.91 28924.14,17516.53 29126.28,17496.45 29131.39,17308.38 28786.53,17312.96 28786.53,14434.91 31323.59,14602.48 31323.59,17014.92 31534.74,17030.9 31534.74,17167.79 31323.51,17209.12 31301.33,17932.53 "/>
     </g>
    </g>
    <g style="clip-path:url(#id32)">
     <path class="fil22" d="M28074.74 14862.68l289.92 13.27 0 1451.64c0,0 -48.74,598.72 236.71,634.11 74.7,9.26 166.2,-17.54 208.26,-88.26 118.65,-199.49 90.54,-652.06 90.54,-652.06l-4.44 -1349.86 243.42 -4.43 0 1597.7c0,0 26.54,805.48 -442.58,871.87 -469.13,66.39 -606.32,-371.76 -606.32,-619.6 0,-247.85 -15.51,-1854.38 -15.51,-1854.38z"/>
    </g>
    <path class="fil25" d="M5273.92 17325.03l0 725.83c0,0 5421.52,889.57 13476.34,765.64 8054.81,-123.92 10214.57,-460.27 12852.3,-938.25l0 -725.81 -2580.18 287.67 -3168.82 314.23 -6678.42 207.99 -5895.07 -35.41 -3558.28 -159.35 -3567.13 -309.8 -880.74 -132.74z"/>
    <path class="fil26" d="M5176.49 17200.8l0 115.06c0,0 3885.84,933.86 14188.91,686.01 10303.07,-247.85 12383.19,-885.15 12383.19,-885.15l0 -128.34c0,58.64 -7033.92,968 -15695.82,858.55 -8214.9,-56.34 -10876.28,-646.13 -10876.28,-646.13z"/>
    <polygon class="fil19" style="mask:url(#id33)" points="2456.22,18558.69 2768.01,18724.36 7918.65,18378.82 7924.89,17706.27 7757.26,17689.31 7757.26,17521.82 8126.01,17502.52 5622.47,17206.03 5318.54,17228.37 5318.39,17346.43 5453.73,17372.97 5453.73,18079.76 "/>
    <g id="_1604977126352">
     <polygon class="fil24" points="1674.85,17887.89 1847.45,17958.7 1847.45,18781.89 1672.63,18688.95 "/>
     <path class="fil20" d="M2768.01 17635.62l0 1088.74 -920.56 57.53 0 -823.19c0,0 920.56,-323.08 920.56,-323.08z"/>
     <polygon class="fil23" points="1674.85,17887.89 2608.68,17560.38 2768.01,17635.62 1847.45,17958.7 "/>
    </g>
    <polygon class="fil19" style="mask:url(#id35)" points="6968.18,19284.24 7929.3,19439.69 10454.7,18595.48 10454.7,17902.07 10266.28,17888.91 10266.28,17691.52 10473.49,17629.62 8440.51,17539.37 8207.61,17559.95 8207.61,17733.53 8402.41,17751.37 8402.41,18425.63 "/>
    <g id="_1604977128608">
     <polygon class="fil24" points="6233.38,18467.64 7083.12,18507.48 7083.12,19600.64 6251.08,19525.39 "/>
     <path class="fil20" d="M7929.3 19439.69c0,0 -846.18,205.21 -846.18,160.95 0,-44.26 0,-1093.16 0,-1093.16l832.19 -460.91 13.99 1393.12z"/>
     <polygon class="fil23" points="7915.31,18046.57 7052.71,17986.12 6233.38,18467.64 7083.12,18507.48 "/>
    </g>
    <polygon class="fil19" style="mask:url(#id37)" points="17514.65,19596.48 18449.74,19577.39 19838.41,18797.8 19838.41,17988.71 19975.29,17986.5 19975.29,17830.77 19836.49,17833.45 19684.25,17701.04 16653,17682.68 16295.12,17849.73 16295.57,18043.39 16599.65,18042.33 16599.65,18826.86 "/>
    <polygon class="fil19" style="mask:url(#id39)" points="30849.62,18877.72 30168.59,19055.05 23603.53,18692.17 23603.53,17860.66 23807.17,17852.63 23799.2,17694.86 23480.98,17638.29 27643.73,17338.7 27963.71,17414.37 27963.71,17599.45 27664.04,17624.4 27664.04,18431.97 "/>
    <polygon class="fil19" style="mask:url(#id41)" points="34697.07,17936.24 34600.84,18001.72 28924.14,18301.91 28924.14,17516.53 29126.28,17496.45 29131.39,17308.38 28786.53,17312.96 31323.59,17014.92 31615.63,17017.94 31602.56,17152.44 31489.05,17177.1 31490.95,17875.21 "/>
    <g id="_1604977124144">
     <polygon class="fil23" points="17258.72,18705.42 18409.4,18696.57 18453.66,18187.61 17338.37,18178.76 "/>
     <polygon class="fil24" points="17294.12,19842.83 18396.13,19820.7 18409.4,18696.57 17258.72,18705.42 "/>
     <polygon class="fil20" points="18453.66,18187.61 18449.74,19577.39 18396.13,19820.7 18409.4,18696.57 "/>
    </g>
    <polygon class="fil19" style="mask:url(#id43)" points="34669.43,16992.64 30798.91,14324.68 29177.6,18269.33 34600.84,18001.72 34600.84,17028.05 "/>
    <g id="_1604977115312">
     <polygon class="fil24" points="31106.85,18138.92 31106.85,19170.11 31761.86,19077.18 31761.86,18063.67 "/>
     <polygon class="fil23" points="30208.42,17749.45 31106.85,18138.92 31761.86,18063.67 30912.12,17656.51 "/>
     <polygon class="fil20" points="31106.85,19170.11 30168.59,19055.05 30208.42,17749.45 31106.85,18138.92 "/>
    </g>
    <g id="_1604977115264">
     <polygon class="fil20" points="34600.84,17028.05 34600.84,18001.72 35490.41,18006.15 35490.41,17302.45 "/>
     <polygon class="fil23" points="34669.43,16992.64 35349.89,17210.61 35490.41,17302.45 34600.84,17028.05 "/>
    </g>
    <polygon class="fil19" style="mask:url(#id45)" points="2608.68,17560.38 4934.52,15471.86 6233.38,18467.64 2768.01,18724.36 2768.01,17635.62 "/>
    <polygon class="fil19" style="mask:url(#id47)" points="7052.71,17986.12 8660.37,16274.27 11748.4,16374.03 11212.06,18342.31 7929.3,19439.69 7915.31,18046.57 "/>
    <polygon class="fil19" style="mask:url(#id49)" points="17338.37,18178.76 16856.13,15386.67 20588.62,15448.34 18449.74,19577.39 18453.66,18187.61 "/>
    <polygon class="fil19" style="mask:url(#id51)" points="30912.12,17656.51 27198.35,14609.1 22087.78,18495.18 30168.59,19055.05 30208.42,17749.45 "/>
    <polygon class="fil20" points="1672.63,18688.95 925.46,18706.47 762.3,18838.76 1847.45,18781.89 "/>
    <polygon class="fil20" points="6251.08,19525.39 7095.55,19606.48 6067.23,19866.24 5282.3,19786.87 "/>
    <polygon class="fil20" points="17294.12,19842.83 18396.13,19820.7 18282.2,20174.92 16941.64,20210.2 "/>
    <polygon class="fil20" points="31761.86,19077.18 32693.22,19156.27 32084.67,19301.79 31106.85,19170.11 "/>
    <polygon class="fil20" points="35490.41,18006.15 36397.39,18000.92 36192.34,17941.4 35490.41,17941.4 "/>
    <path class="fil27" d="M18832.05 12856.3c3484.53,0 6644.51,23.68 8936.59,61.96 2308.25,38.54 3735.96,103.07 3735.96,184.39 0,81.33 -1427.71,145.85 -3735.96,184.39 -1728.41,28.87 -3950.41,49.42 -6432.87,57.79l0 -70.52c2488.41,-8.32 4709.87,-28.79 6431.77,-57.55 2265.34,-37.83 3666.5,-78.87 3666.5,-114.11 0,-35.25 -1401.16,-76.28 -3666.5,-114.11 -2281.73,-38.11 -5440.53,-61.68 -8935.49,-61.68 -3494.96,0 -6653.76,23.57 -8935.49,61.68 -2265.34,37.83 -3666.5,78.86 -3666.5,114.11 0,35.24 1401.16,76.28 3666.5,114.11 1163.11,19.43 2554.22,35.07 4101.49,45.75l0 70.43c-1544.55,-10.73 -2936.03,-26.42 -4102.59,-45.9 -2308.25,-38.54 -3735.96,-103.06 -3735.96,-184.39 0,-81.32 1427.71,-145.85 3735.96,-184.39 2292.08,-38.28 5452.06,-61.96 8936.59,-61.96z"/>
    <path class="fil28" d="M18832.05 8156.9c3564.93,0 6793.24,91.25 9130.8,238.77 2356.62,148.71 3814.22,364.23 3814.22,611.24 0,247.01 -1457.6,462.53 -3814.22,611.24 -2123.35,134 -4981.7,221.56 -8159.68,236.49l-0.31 -46.67 -10.88 -23.83c3182.17,-14.75 6043.11,-102.27 8166.45,-236.27 2315.75,-146.14 3748.08,-338.02 3748.08,-540.96 0,-202.94 -1432.33,-394.82 -3748.08,-540.96 -2334.82,-147.35 -5561.44,-238.49 -9126.38,-238.49 -3564.94,0 -6791.56,91.14 -9126.38,238.49 -2315.75,146.14 -3748.08,338.02 -3748.08,540.96 0,202.94 1432.33,394.82 3748.08,540.96 1841.22,116.2 4237.12,197.42 6916.1,226.58l-0.47 70.55c-2679.41,-29.19 -5076.72,-110.52 -6920.05,-226.85 -2356.62,-148.71 -3814.22,-364.23 -3814.22,-611.24 0,-247.01 1457.6,-462.53 3814.22,-611.24 2337.56,-147.52 5565.87,-238.77 9130.8,-238.77z"/>
    <path class="fil29" d="M18832.05 10582.79c3562.7,0 6790.74,45.66 9129.67,119.45 2357.31,74.38 3815.35,188.01 3815.35,323.19 0,135.2 -1458.02,248.82 -3815.31,323.19 -2080.52,65.65 -4864.56,109.03 -7961.85,117.81l-36.78 -70.45c3115.43,-8.51 5912.3,-51.88 7996.43,-117.64 2315.05,-73.04 3746.95,-163.13 3746.95,-252.91 0,-89.78 -1431.92,-179.86 -3746.99,-252.91 -2333.45,-73.62 -5560.32,-119.17 -9127.47,-119.17 -3567.15,0 -6794.02,45.55 -9127.47,119.17 -2315.07,73.05 -3746.99,163.13 -3746.99,252.91 0,89.78 1431.9,179.87 3746.95,252.91 1777.06,56.07 4072.35,95.85 6641.41,111.64l-76.25 70.05c-2535.98,-16.15 -4804.29,-55.78 -6567.36,-111.41 -2357.29,-74.37 -3815.31,-187.99 -3815.31,-323.19 0,-135.18 1458.04,-248.81 3815.35,-323.19 2338.93,-73.79 5566.97,-119.45 9129.67,-119.45z"/>
    <path class="fil30" d="M18832.05 2932.3c3566.19,0 6795.39,201.77 9133.41,527.98 2355,328.58 3811.61,790.73 3811.61,1308.54 0,517.81 -1456.61,979.96 -3811.61,1308.54 -2036.8,284.18 -4750.01,473.89 -7773.09,518.07l-91.43 -69.27c3057.01,-41.62 5800.98,-231.97 7854.88,-518.54 2317.36,-323.33 3750.69,-761.82 3750.69,-1238.8 0,-476.98 -1433.33,-915.47 -3750.69,-1238.8 -2334.38,-325.7 -5560.09,-527.16 -9123.77,-527.16 -3563.68,0 -6789.39,201.46 -9123.77,527.16 -2317.36,323.33 -3750.69,761.82 -3750.69,1238.8 0,476.98 1433.33,915.47 3750.69,1238.8 1746.9,243.73 3993,417.88 6506.31,490.1l-39.35 69.41c-2500.44,-72.98 -4735.63,-246.86 -6476.6,-489.77 -2355,-328.58 -3811.61,-790.73 -3811.61,-1308.54 0,-517.81 1456.61,-979.96 3811.61,-1308.54 2338.02,-326.21 5567.22,-527.98 9133.41,-527.98z"/>
   </g>
  </g>
  <polygon class="fil22" points="-2.37,7.13 37330.97,7.13 37330.97,21007.13 15763.5,21007.13 15108.29,20350.87 -2.37,20350.87 "/>
 </g>
</svg>
