<?xml version="1.0" encoding="UTF-8"?>
<!DOCTYPE svg PUBLIC "-//W3C//DTD SVG 1.1//EN" "http://www.w3.org/Graphics/SVG/1.1/DTD/svg11.dtd">
<!-- Creator: CorelDRAW 2020 (64-Bit) -->
<svg xmlns="http://www.w3.org/2000/svg" xml:space="preserve" width="127.133mm" height="125.461mm" version="1.1" style="shape-rendering:geometricPrecision; text-rendering:geometricPrecision; image-rendering:optimizeQuality; fill-rule:evenodd; clip-rule:evenodd"
viewBox="0 0 12713.3 12546.1"
 xmlns:xlink="http://www.w3.org/1999/xlink"
 xmlns:xodm="http://www.corel.com/coreldraw/odm/2003">
 <defs>
  <style type="text/css">
   <![CDATA[
    .fil1 {fill:#132226}
    .fil4 {fill:#1B323B}
    .fil3 {fill:#366576}
    .fil0 {fill:#3E7589}
    .fil5 {fill:#71CEEF}
    .fil2 {fill:#D9D8D3}
    .fil6 {fill:#DCF3FC}
   ]]>
  </style>
    <mask id="id0">
  <linearGradient id="id1" gradientUnits="userSpaceOnUse" x1="6590.9" y1="449.31" x2="7363.75" y2="11645.94">
   <stop offset="0" style="stop-opacity:0; stop-color:white"/>
   <stop offset="0.701961" style="stop-opacity:0.501961; stop-color:white"/>
   <stop offset="1" style="stop-opacity:1; stop-color:white"/>
  </linearGradient>
     <rect style="fill:url(#id1)" x="-12.34" y="-2.88" width="12733.29" height="11505.49"/>
    </mask>
 </defs>
 <g id="Layer_x0020_1">
  <metadata id="CorelCorpID_0Corel-Layer"/>
  <g id="_1605052214848">
   <g>
    <path class="fil0" d="M5528.92 11827.12c1.47,1.44 39.51,60.76 56.85,80.65 5.18,5.94 6.67,8.19 11.04,13.25 86.2,99.89 220.61,181.99 348.89,235.48 439.65,183.32 1120,159.3 1499.42,-130.75 26.99,-20.63 77.43,-63.48 98.31,-88.44 28.44,-33.95 35.65,-40.23 61.5,-79.21 5.68,-8.55 13.94,-24.17 19.13,-29.34 50.82,-95.56 70.94,-193.42 45.92,-305.55 -5.33,-23.88 27.31,-65.28 0.05,-201.2 -2.1,-10.53 0.66,-15.34 3.48,-28.16 2.54,-11.51 2.93,-19.37 4.64,-31.74 2.73,-19.83 1.79,-49.67 1.76,-73.58 -0.08,-58.45 -16.05,-46.39 -6.71,-93.83 12.34,-62.76 9.97,-107.9 -2.04,-169.02 -2.2,-11.23 -27.39,-102.71 -42.26,-108.09l0.02 14.56 0.02 84.92c5.52,12.9 1.92,87.38 1.11,106.87 -8.54,207.68 -161.81,339.28 -334.89,437.13 -90.49,51.17 -210.42,91.28 -323.15,117.97 -250.02,59.21 -544.54,58.38 -794.11,-1.44 -212.81,-51.01 -434.24,-151.96 -565.15,-317.62 -56.04,-70.88 -85.6,-145.47 -89.59,-240.24 -0.73,-16.93 -2.57,-93.96 0.8,-104.48l0.1 -80.69 0.02 -16.98c-14.07,10.31 -36.98,86.1 -41.74,106.19 -8.68,36.63 -12.83,92.25 -7.22,136.76 1.56,12.37 2.76,21.97 4.65,31.72 2.41,12.34 5.86,18.98 3.74,28.93 -9.95,46.69 -15.23,91.04 -8.68,138.49 1.92,13.89 10.01,53.79 8.4,62.49 -11.97,64.4 -16.39,100.71 -4.21,168.54 7.92,44.11 6.04,14.23 -1.4,58.84 -12.82,76.77 -1.79,160.83 26.98,225.96 8.11,18.36 16.44,33.91 24.32,51.61z"/>
    <path class="fil1" d="M6864.11 10451.47c-2.44,15.8 -0.61,383.96 -0.59,426.75 0.01,31.9 2.28,48.64 -17.91,67.87 -35.3,33.62 -76.03,41 -126.15,43.23 2.41,65.75 13.49,111.81 -50.18,141.74 -29.69,13.94 -65.93,21.36 -99.91,20.07 -48.09,-1.84 -91.05,-15.71 -118.58,-42.99 -32.09,-31.83 -14.03,-65.2 -18.43,-119.15 -51.78,-4.44 -100.15,-15.34 -126,-44.34 -18.11,-20.3 -16.68,-35.78 -16.68,-68.86 0.05,-140.55 1.78,-284.39 -0.07,-424.08 -29.8,3.16 -81.47,20.03 -110.12,29.5 -35.67,11.8 -66.51,24.68 -99.18,39.01 -80.8,35.44 -185.9,104.73 -239.09,178.05 -19.88,27.41 -36.22,51.94 -49.75,88.5 -32.19,87.01 -18.8,163.86 20.89,239.82 1.78,3.41 1.81,3.28 3.09,6l13.89 22.85c42.18,65.09 121.02,123.24 186.49,160.25 286.02,161.67 732.23,171.38 1028.12,47.46 87,-36.44 149.61,-73.51 218.31,-135.83l73.95 -90.64c43.99,-69.35 57.52,-168.97 25.14,-252.21 -28.47,-73.19 -64.69,-109.99 -116.88,-159.53 -79.45,-75.42 -278.21,-161.94 -380.36,-173.47z"/>
    <path class="fil2" d="M5524.06 10834.57l-0.1 80.69c2.51,99.28 72.51,204.63 135.79,268.63 219.01,221.5 605,307.79 914.31,308.7 244.55,0.74 482.09,-47.23 676.1,-139.44 129.7,-61.62 265.26,-159.51 329.98,-281.13 20.82,-39.13 47.27,-99.05 48.8,-154.95l-0.02 -84.92c-0.33,-0.53 -0.6,-2.06 -0.7,-1.73l-15.97 -61.63c-20.37,-61.11 -60.32,-129.1 -106.38,-174.93l-52.13 -49.71c-23.71,-21.13 -32.36,-26.48 -56.94,-44.91 -59.59,-44.63 -141.49,-85.75 -211.31,-113.62 -38.84,-15.52 -79.42,-30.57 -120.19,-42.29 -32.41,-9.3 -168.68,-46.06 -200.25,-44.32 -3.63,8.42 -2.88,135.97 -0.94,152.46 102.15,11.53 300.91,98.05 380.36,173.47 52.19,49.54 88.41,86.34 116.88,159.53 32.38,83.24 18.85,182.86 -25.14,252.21l-73.95 90.64c-68.7,62.32 -131.31,99.39 -218.31,135.83 -295.89,123.92 -742.1,114.21 -1028.12,-47.46 -65.47,-37.01 -144.31,-95.16 -186.49,-160.25l-13.89 -22.85c-1.28,-2.72 -1.31,-2.59 -3.09,-6 -39.69,-75.96 -53.08,-152.81 -20.89,-239.82 13.53,-36.56 29.87,-61.09 49.75,-88.5 53.19,-73.32 158.29,-142.61 239.09,-178.05 32.67,-14.33 63.51,-27.21 99.18,-39.01 28.65,-9.47 80.32,-26.34 110.12,-29.5 0.19,-23.68 4.29,-140.99 -1.68,-152.51 -13.01,-1.1 -54.58,8.62 -68.13,11.36 -125.96,25.44 -303.43,86.04 -412.01,157.84 -96.75,63.99 -189.56,136.11 -243.31,244.1 -8.98,18.03 -17.2,36.55 -23.77,56.26 -9.15,27.4 -11.12,48.74 -15.29,62.31 -0.16,0.52 -0.52,1.37 -0.66,1.77 -0.14,0.4 -0.37,1.21 -0.7,1.73z"/>
    <path class="fil3" d="M7505.23 12048.5c-14.07,8.63 -28.6,29.66 -43.68,42.09 -55.38,45.65 -79.44,64.26 -146.87,102.91 -374.24,214.47 -981.27,225.53 -1370.8,49.64 -125.9,-56.85 -252.52,-134.83 -335.71,-246.23l-33.17 -48.42c0,0 6.18,604.75 6.18,604.75l1921.38 0c0,0 2.67,-504.74 2.67,-504.74z"/>
    <path class="fil4" d="M5523.14 11617.42c-5.39,155.84 118.31,302.25 238.75,383.34 39.95,26.89 82.64,53.7 130.94,77.5 194.03,95.64 438.66,146.38 686.09,146.26 217.67,-0.1 494.87,-45.54 684.01,-145.7 85.76,-45.42 178.86,-98.67 242.03,-172.66 69.43,-81.32 126.12,-169.33 125.35,-290.39 -76.44,146.59 -235.33,265.04 -414.11,338.63 -389,160.12 -882.87,158.41 -1272.82,0.7 -85.87,-34.75 -180.67,-89.12 -241.2,-137.12 -37.72,-29.91 -70.41,-57.47 -98.49,-90.66 -3.76,-4.43 -6.7,-6.71 -10.58,-11.14 -4.22,-4.8 -6.26,-8.25 -10.75,-13.58 -32.03,-38.02 -44.82,-67.51 -55.18,-80.89 -2.36,-3.05 -1.42,-2.15 -4.04,-4.29z"/>
    <path class="fil4" d="M7629.99 11218.6l-37.6 57.19c-30.58,44.87 -72.47,86.16 -113.53,121.7 -226.92,196.38 -609.64,276.39 -907.22,275.12 -456.71,-1.95 -890.7,-170.44 -1048.77,-459.09 2.34,88.49 28.88,163.64 77.72,230.81 14.18,19.49 30.53,41.59 47.33,56.89l37.2 37.92c226.78,200.71 572.38,282.67 886.52,284.33 251.97,1.34 486.01,-48.37 685.85,-142.93 160.29,-75.85 370.39,-232.88 372.5,-461.94z"/>
    <path class="fil4" d="M7629.55 11418.72l-36.63 56.4c-42.96,58.85 -62.05,75.74 -113.3,121.96 -66.69,60.15 -171.64,118.22 -266.34,158 -381.07,160.04 -889.31,155.47 -1272.12,-1.45 -93.53,-38.34 -169.16,-84.96 -239.19,-136.67 -18.07,-13.35 -35.99,-28.82 -51.92,-42.73 -66.51,-58.1 -124.85,-155.89 -126.6,-157.4 -2.97,128.36 69.52,224.54 125.37,287.24 57.81,64.9 167.6,135.1 242.13,172.46 394.62,197.8 969.77,194.61 1369.59,3.34 48.6,-23.25 88.93,-49.03 129.95,-76.1 29.15,-19.24 61.28,-45.25 85.24,-69.92 49.81,-51.29 76.86,-75.81 112.71,-146.79 22.88,-45.29 44.06,-108.93 41.11,-168.34z"/>
    <path class="fil5" d="M6287.93 10299.2c5.97,11.52 1.87,128.83 1.68,152.51 1.85,139.69 0.12,283.53 0.07,424.08 0,33.08 -1.43,48.56 16.68,68.86 25.85,29 74.22,39.9 126,44.34 3.31,-68.11 0.39,-143.69 0.39,-212.62 0,-29 -2.5,-408.23 1.17,-426.22 19.38,-95.31 266.36,-95.97 284.63,0.25 3.65,19.24 2.18,610.56 0.91,638.92 50.12,-2.23 90.85,-9.61 126.15,-43.23 20.19,-19.23 17.92,-35.97 17.91,-67.87 -0.02,-42.79 -1.85,-410.95 0.59,-426.75 -1.94,-16.49 -2.69,-144.04 0.94,-152.46 0,-93.75 21.21,-148.54 -92.57,-176.93 -35.87,-8.95 -86.59,-6.78 -119.31,3.49 -16.18,5.08 -33.6,13.54 -45.55,22.36 -11.32,8.34 -27.27,21.99 -28.7,39.19 -10.32,-7.55 -9.75,-39.16 -74.87,-60.95 -59.83,-20.02 -171.41,-12.59 -207.02,45.81 -15.48,25.39 -9.1,87.8 -9.1,127.22z"/>
    <path class="fil4" d="M7628.94 10917.07c-1.53,55.9 -27.98,115.82 -48.8,154.95 -64.72,121.62 -200.28,219.51 -329.98,281.13 -194.01,92.21 -431.55,140.18 -676.1,139.44 -309.31,-0.91 -695.3,-87.2 -914.31,-308.7 -63.28,-64 -133.28,-169.35 -135.79,-268.63 -3.37,10.52 -1.53,87.55 -0.8,104.48 3.99,94.77 33.55,169.36 89.59,240.24 130.91,165.66 352.34,266.61 565.15,317.62 249.57,59.82 544.09,60.65 794.11,1.44 112.73,-26.69 232.66,-66.8 323.15,-117.97 173.08,-97.85 326.35,-229.45 334.89,-437.13 0.81,-19.49 4.41,-93.97 -1.11,-106.87z"/>
    <path class="fil6" d="M6432.36 10988.99c4.4,53.95 -13.66,87.32 18.43,119.15 27.53,27.28 70.49,41.15 118.58,42.99 33.98,1.29 70.22,-6.13 99.91,-20.07 63.67,-29.93 52.59,-75.99 50.18,-141.74 1.27,-28.36 2.74,-619.68 -0.91,-638.92 -18.27,-96.22 -265.25,-95.56 -284.63,-0.25 -3.67,17.99 -1.17,397.22 -1.17,426.22 0,68.93 2.92,144.51 -0.39,212.62z"/>
    <path class="fil4" d="M5575 11948.49l33.17 48.43c83.18,111.39 209.81,189.37 335.7,246.21 389.54,175.9 996.56,164.84 1370.81,-49.63 67.43,-38.65 91.49,-57.26 146.87,-102.91 15.08,-12.43 29.61,-33.47 43.68,-42.09 6.98,-2.89 10.93,-10.95 19.08,-21.19 24.98,-31.31 69.56,-95.33 82.49,-130.91 3.49,-9.6 5.91,-21.54 8.96,-32.26 2.86,-10.09 7.5,-25.82 8.3,-35.38 -5.19,5.17 -13.45,20.79 -19.13,29.34 -25.85,38.98 -33.06,45.26 -61.5,79.21 -20.88,24.96 -71.32,67.81 -98.31,88.44 -379.42,290.05 -1059.77,314.07 -1499.42,130.75 -128.28,-53.49 -262.69,-135.59 -348.89,-235.48 -4.37,-5.06 -5.86,-7.31 -11.04,-13.25 -17.34,-19.89 -55.38,-79.21 -56.85,-80.65 2.08,21.68 20.36,70.66 30.68,92.24l15.4 29.13z"/>
   </g>
   <path class="fil5" style="mask:url(#id0)" d="M5659.75 11183.88c219.01,221.51 605,307.8 914.31,308.72 244.55,0.74 482.09,-47.24 676.11,-139.44 129.69,-61.64 265.25,-159.52 329.97,-281.14 1049.48,-1972.44 4179.6,-8835.56 5130.81,-11064.9l-12713.29 0c670.76,1160.3 5147.96,10656.86 5662.09,11176.76z"/>
  </g>
 </g>
</svg>
